<svg width="2048" height="2048" version="1.1" xmlns="http://www.w3.org/2000/svg" desc="Created with imagetracer.js version 1.2.6" ><path fill="rgb(0,0,0)" stroke="rgb(0,0,0)" stroke-width="1" opacity="0.0392156862745098" d="M 1370.5 158 L 1372.5 161 L 1370.5 158 Z " /><path fill="rgb(0,0,0)" stroke="rgb(0,0,0)" stroke-width="1" opacity="0.0392156862745098" d="M 598.5 176 L 596.5 179 L 598.5 176 Z " /><path fill="rgb(0,0,0)" stroke="rgb(0,0,0)" stroke-width="1" opacity="0.0392156862745098" d="M 1389.5 177 L 1390.5 179 L 1389.5 177 Z " /><path fill="rgb(0,0,0)" stroke="rgb(0,0,0)" stroke-width="1" opacity="0.0392156862745098" d="M 587.5 187 L 585.5 190 L 587.5 187 Z " /><path fill="rgb(0,0,0)" stroke="rgb(0,0,0)" stroke-width="1" opacity="0.0392156862745098" d="M 390.5 472 L 539 472.5 L 390.5 473 L 390.5 472 Z " /><path fill="rgb(0,0,0)" stroke="rgb(0,0,0)" stroke-width="1" opacity="0.0392156862745098" d="M 255.5 523 L 254.5 525 L 255.5 523 Z " /><path fill="rgb(0,0,0)" stroke="rgb(0,0,0)" stroke-width="1" opacity="0.0392156862745098" d="M 250.5 528 L 244.5 535 L 250.5 528 Z " /><path fill="rgb(0,0,0)" stroke="rgb(0,0,0)" stroke-width="1" opacity="0.0392156862745098" d="M 228.5 1307 L 229.5 1309 L 228.5 1307 Z " /><path fill="rgb(0,0,0)" stroke="rgb(0,0,0)" stroke-width="1" opacity="0.0392156862745098" d="M 245.5 1324 L 246.5 1326 L 245.5 1324 Z " /><path fill="rgb(0,0,0)" stroke="rgb(0,0,0)" stroke-width="1" opacity="0.0392156862745098" d="M 600.5 1468 L 602 1468.5 L 602 1498 L 566.5 1506 L 508.5 1523 L 468.5 1537 L 429.5 1553 Q 396.2 1567.7 366.5 1586 Q 335.7 1604.7 311 1629.5 Q 293.7 1646.7 282 1669.5 L 274 1692.5 L 273 1704.5 L 272 1705.5 L 272 1718.5 L 276 1739.5 L 285 1760.5 Q 299.5 1785.5 320.5 1804 Q 347.2 1827.8 379.5 1846 Q 411.6 1864.4 447.5 1879 L 478.5 1891 L 523.5 1906 L 561.5 1917 L 623.5 1932 L 679.5 1943 L 684.5 1943 L 715.5 1949 L 721.5 1949 L 728.5 1951 L 764.5 1955 L 765.5 1956 L 772.5 1956 L 773.5 1957 L 780.5 1957 L 781.5 1958 L 807.5 1960 L 808.5 1961 L 839.5 1963 L 840.5 1964 L 878.5 1966 L 879.5 1967 L 893.5 1967 L 894.5 1968 L 911.5 1968 L 912.5 1969 L 961.5 1970 L 962.5 1971 L 1085.5 1971 L 1086.5 1970 L 1135.5 1969 L 1136.5 1968 L 1153.5 1968 L 1154.5 1967 L 1195.5 1965 L 1196.5 1964 L 1207.5 1964 L 1208.5 1963 L 1239.5 1961 L 1240.5 1960 L 1248.5 1960 L 1249.5 1959 L 1257.5 1959 L 1258.5 1958 L 1266.5 1958 L 1267.5 1957 L 1290.5 1955 L 1298.5 1953 L 1305.5 1953 L 1306.5 1952 L 1332.5 1949 L 1405.5 1936 L 1497.5 1914 L 1569.5 1891 Q 1608.8 1876.8 1644.5 1859 Q 1673.1 1844.6 1698.5 1827 Q 1722.5 1810.5 1742 1789.5 Q 1759.4 1770.9 1770 1745.5 L 1775 1726.5 L 1776 1705.5 L 1773 1688.5 L 1765 1667.5 Q 1751.7 1643.3 1732.5 1625 Q 1709.4 1603.1 1681.5 1586 L 1631.5 1559 Q 1575.1 1532.2 1510 1515 L 1510 1483.5 L 1512.5 1483 L 1560.5 1496 L 1607.5 1511 L 1662.5 1532 L 1691.5 1545 Q 1730.6 1563.4 1764.5 1587 Q 1791.4 1605.6 1813 1629.5 Q 1831.3 1649.2 1842 1676.5 L 1846 1689.5 L 1847 1700.5 L 1848 1701.5 L 1848 1722.5 L 1847 1723.5 L 1846 1734.5 L 1841 1750.5 L 1831 1770.5 Q 1814.2 1797.2 1790.5 1817 Q 1765.2 1838.7 1735.5 1856 Q 1699.1 1877.1 1658.5 1894 L 1608.5 1913 L 1571.5 1925 L 1514.5 1941 L 1463.5 1953 L 1408.5 1964 L 1403.5 1964 L 1360.5 1972 L 1354.5 1972 L 1347.5 1974 L 1311.5 1978 L 1310.5 1979 L 1303.5 1979 L 1302.5 1980 L 1295.5 1980 L 1294.5 1981 L 1287.5 1981 L 1286.5 1982 L 1239.5 1986 L 1238.5 1987 L 1228.5 1987 L 1227.5 1988 L 1190.5 1990 L 1189.5 1991 L 1175.5 1991 L 1174.5 1992 L 1159.5 1992 L 1158.5 1993 L 1118.5 1994 L 1117.5 1995 L 1087.5 1995 L 1086.5 1996 L 961.5 1996 L 960.5 1995 L 930.5 1995 L 929.5 1994 L 908.5 1994 L 907.5 1993 L 889.5 1993 L 888.5 1992 L 844.5 1990 L 843.5 1989 L 809.5 1987 L 808.5 1986 L 779.5 1984 L 778.5 1983 L 770.5 1983 L 769.5 1982 L 761.5 1982 L 760.5 1981 L 721.5 1977 L 720.5 1976 L 714.5 1976 L 713.5 1975 L 707.5 1975 L 706.5 1974 L 700.5 1974 L 693.5 1972 L 687.5 1972 L 680.5 1970 L 656.5 1967 L 650.5 1965 L 639.5 1964 L 628.5 1961 L 623.5 1961 L 598.5 1956 L 553.5 1945 L 549.5 1945 L 496.5 1931 L 460.5 1920 L 409.5 1902 Q 365.8 1885.2 326.5 1864 Q 298.4 1848.6 273.5 1830 Q 251.2 1813.3 233 1792.5 Q 217 1774.5 207 1750.5 L 201 1729.5 Q 202.5 1724 200 1722.5 L 200 1701.5 L 201 1700.5 L 202 1689.5 L 206 1676.5 L 216 1655.5 Q 232 1629.5 254.5 1610 Q 282.7 1585.2 316.5 1566 Q 349.2 1547.2 385.5 1532 L 440.5 1511 L 487.5 1496 L 563.5 1476 L 567.5 1476 L 600.5 1468 Z " /><path fill="rgb(0,0,0)" stroke="rgb(0,0,0)" stroke-width="1" opacity="0" d="M 0 0 L 2048 0 L 2048 2048 L 0 2048 L 0 0 Z M 979 46 L 978 47 L 959 47 L 958 48 L 946 48 L 945 49 L 917 51 L 916 52 L 902 53 L 895 55 L 877 57 L 866 60 L 861 60 L 802 74 L 748 91 L 708 107 L 666 128 Q 629 149 599 176 Q 578 195 562 220 Q 549 241 542 269 L 540 280 L 540 288 L 539 289 L 539 472 L 391 472 L 390 473 L 370 473 L 369 474 L 354 475 L 328 481 L 309 488 Q 278 501 256 523 Q 226 551 206 588 L 191 617 L 170 667 L 151 721 L 135 778 L 125 833 L 123 859 L 122 860 L 122 871 L 121 872 L 121 888 L 120 889 L 120 947 L 121 948 L 122 978 L 123 979 L 123 989 L 124 990 L 126 1015 L 127 1016 L 127 1022 L 128 1023 L 128 1029 L 129 1030 L 133 1060 L 141 1101 L 156 1163 L 168 1201 L 186 1244 Q 203 1279 228 1308 Q 256 1340 297 1359 L 335 1372 L 356 1376 L 376 1377 L 377 1378 L 602 1378 L 602 1468 L 564 1476 L 488 1496 L 441 1511 L 386 1532 Q 349 1547 317 1566 Q 283 1585 255 1610 Q 232 1629 216 1656 L 206 1677 L 202 1690 L 201 1701 L 200 1702 L 200 1723 Q 203 1724 201 1730 L 207 1751 Q 217 1774 233 1793 Q 251 1813 274 1830 Q 298 1849 327 1864 Q 366 1885 410 1902 L 461 1920 L 497 1931 L 550 1945 L 554 1945 L 599 1956 L 624 1961 L 629 1961 L 640 1964 L 651 1965 L 657 1967 L 681 1970 L 688 1972 L 694 1972 L 701 1974 L 707 1974 L 708 1975 L 714 1975 L 715 1976 L 721 1976 L 722 1977 L 761 1981 L 762 1982 L 770 1982 L 771 1983 L 779 1983 L 780 1984 L 809 1986 L 810 1987 L 844 1989 L 845 1990 L 889 1992 L 890 1993 L 908 1993 L 909 1994 L 930 1994 L 931 1995 L 961 1995 L 962 1996 L 1087 1996 L 1088 1995 L 1118 1995 L 1119 1994 L 1159 1993 L 1160 1992 L 1175 1992 L 1176 1991 L 1190 1991 L 1191 1990 L 1228 1988 L 1229 1987 L 1239 1987 L 1240 1986 L 1287 1982 L 1288 1981 L 1295 1981 L 1296 1980 L 1303 1980 L 1304 1979 L 1311 1979 L 1312 1978 L 1348 1974 L 1355 1972 L 1361 1972 L 1404 1964 L 1409 1964 L 1464 1953 L 1515 1941 L 1572 1925 L 1609 1913 L 1659 1894 Q 1699 1877 1736 1856 Q 1765 1839 1791 1817 Q 1814 1797 1831 1771 L 1841 1751 L 1846 1735 L 1847 1724 L 1848 1723 L 1848 1702 L 1847 1701 L 1846 1690 L 1842 1677 Q 1831 1649 1813 1630 Q 1791 1606 1765 1587 Q 1731 1563 1692 1545 L 1663 1532 L 1608 1511 L 1561 1496 L 1513 1483 L 1510 1483 L 1510 1448 L 1677 1448 L 1678 1447 L 1695 1446 L 1717 1441 L 1740 1433 Q 1771 1419 1794 1397 Q 1819 1372 1838 1341 L 1859 1301 L 1880 1250 L 1899 1195 L 1913 1144 L 1923 1090 L 1925 1065 L 1926 1064 L 1926 1053 L 1927 1052 L 1927 1037 L 1928 1036 L 1928 972 L 1927 971 L 1927 955 L 1926 954 L 1924 922 L 1923 921 L 1922 906 L 1921 905 L 1918 878 L 1913 855 L 1913 850 L 1903 802 L 1897 781 L 1897 777 L 1881 723 L 1866 686 Q 1846 640 1814 607 L 1812 605 L 1809 601 L 1788 583 L 1755 563 L 1723 551 L 1695 545 L 1676 544 L 1675 543 L 1444 543 L 1444 300 L 1443 299 L 1442 284 L 1437 261 L 1429 238 Q 1414 204 1391 179 Q 1361 145 1321 122 Q 1276 96 1223 80 L 1167 65 L 1104 53 L 1097 53 L 1081 50 L 1072 50 L 1071 49 L 1061 49 L 1060 48 L 1048 48 L 1047 47 L 979 46 Z " /><path fill="rgb(123,163,196)" stroke="rgb(123,163,196)" stroke-width="1" opacity="1" d="M 770.5 209 L 780 209.5 L 770.5 210 L 770.5 209 Z " /><path fill="rgb(123,163,196)" stroke="rgb(123,163,196)" stroke-width="1" opacity="1" d="M 761.5 210 L 765 210.5 L 761.5 211 L 761.5 210 Z " /><path fill="rgb(123,163,196)" stroke="rgb(123,163,196)" stroke-width="1" opacity="1" d="M 785.5 210 L 788 210.5 L 785.5 211 L 785.5 210 Z " /><path fill="rgb(123,163,196)" stroke="rgb(123,163,196)" stroke-width="1" opacity="1" d="M 742.5 216 L 744 216.5 L 737.5 220 L 738.5 218 L 742.5 216 Z " /><path fill="rgb(123,163,196)" stroke="rgb(123,163,196)" stroke-width="1" opacity="1" d="M 806.5 216 L 809 217.5 L 807.5 217 L 806.5 216 Z " /><path fill="rgb(123,163,196)" stroke="rgb(123,163,196)" stroke-width="1" opacity="1" d="M 657.5 220 L 667 220 L 667 236.5 L 667.5 237 L 715.5 237 Q 723.6 226.7 735.5 220 L 734.5 222 Q 722.7 228.2 715 238.5 Q 706.7 248.7 702 262.5 L 699 280 L 697.5 280 L 687 290.5 Q 680 298.5 677 310.5 L 677 403 L 1106 403 L 1106 607.5 L 1104.5 609 L 1080.5 614 L 1047 614 Q 1044.7 620.4 1052.5 618 L 1052.5 619 L 1034.5 621 L 1027.5 623 L 1020.5 623 L 1019.5 624 L 1003.5 625 L 1002.5 626 L 970.5 628 L 969.5 629 L 957.5 629 L 956.5 630 L 914.5 631 L 913.5 632 L 830.5 632 L 829.5 633 L 802.5 633 L 801.5 634 L 785.5 634 L 784.5 635 L 772.5 635 L 771.5 636 L 742.5 638 L 741.5 639 L 726.5 640 L 725.5 641 L 719.5 641 L 718.5 642 L 688.5 646 L 640.5 656 L 599.5 667 L 556.5 681 Q 513.7 696.2 474.5 715 Q 424.6 739.1 379.5 768 Q 330.6 799.6 286.5 836 Q 239.6 875.6 197 919.5 L 190.5 927 L 190 892.5 L 191 891.5 L 191 875.5 L 192 874.5 L 192 863.5 L 193 862.5 L 195 838.5 L 203 795.5 L 214 754.5 L 235 693.5 L 254 647.5 L 268 620.5 L 290 588.5 L 308.5 570 Q 321.1 559.1 337.5 552 L 356.5 546 L 366.5 544 L 373.5 544 L 374.5 543 L 937.5 543 L 938.5 544 L 1037 544 L 1037 473.5 L 1035.5 472 L 609 472 L 609 324.5 L 610 323.5 L 610 291.5 L 616 272.5 L 629 249.5 L 655.5 221 L 657.5 220 Z " /><path fill="rgb(123,163,196)" stroke="rgb(123,163,196)" stroke-width="1" opacity="1" d="M 817.5 222 L 818.5 224 L 817.5 222 Z " /><path fill="rgb(123,163,196)" stroke="rgb(123,163,196)" stroke-width="1" opacity="1" d="M 821.5 225 L 822.5 227 L 821.5 225 Z " /><path fill="rgb(123,163,196)" stroke="rgb(123,163,196)" stroke-width="1" opacity="1" d="M 827.5 230 L 830.5 234 L 827.5 230 Z " /><path fill="rgb(123,163,196)" stroke="rgb(123,163,196)" stroke-width="1" opacity="1" d="M 834.5 238 L 835.5 240 L 834.5 238 Z " /><path fill="rgb(123,163,196)" stroke="rgb(123,163,196)" stroke-width="1" opacity="1" d="M 837.5 242 L 838.5 244 L 837.5 242 Z " /><path fill="rgb(123,163,196)" stroke="rgb(123,163,196)" stroke-width="1" opacity="1" d="M 850.5 273 L 851 275.5 L 850 275.5 L 850.5 273 Z " /><path fill="rgb(123,163,196)" stroke="rgb(123,163,196)" stroke-width="1" opacity="1" d="M 698.5 281 L 699 292.5 L 698 292.5 L 698.5 281 Z " /><path fill="rgb(123,163,196)" stroke="rgb(123,163,196)" stroke-width="1" opacity="1" d="M 851.5 281 L 852 292.5 L 851 292.5 L 851.5 281 Z " /><path fill="rgb(123,163,196)" stroke="rgb(123,163,196)" stroke-width="1" opacity="1" d="M 699.5 298 L 700 300.5 L 699 300.5 L 699.5 298 Z " /><path fill="rgb(123,163,196)" stroke="rgb(123,163,196)" stroke-width="1" opacity="1" d="M 1303 309 L 1323 309 L 1323 318.5 L 1323.5 319 L 1359.5 319 L 1360 319.5 L 1360 326 L 1373 326 L 1373 383.5 L 1374 384.5 L 1374 452.5 Q 1341.7 485.7 1304.5 514 L 1304 313.5 L 1303 309 Z " /><path fill="rgb(123,163,196)" stroke="rgb(123,163,196)" stroke-width="1" opacity="1" d="M 707.5 323 L 708.5 325 L 707.5 323 Z " /><path fill="rgb(123,163,196)" stroke="rgb(123,163,196)" stroke-width="1" opacity="1" d="M 710.5 328 L 711.5 330 L 710.5 328 Z " /><path fill="rgb(123,163,196)" stroke="rgb(123,163,196)" stroke-width="1" opacity="1" d="M 839.5 328 L 838.5 330 L 839.5 328 Z " /><path fill="rgb(123,163,196)" stroke="rgb(123,163,196)" stroke-width="1" opacity="1" d="M 712.5 331 L 713.5 333 L 712.5 331 Z " /><path fill="rgb(123,163,196)" stroke="rgb(123,163,196)" stroke-width="1" opacity="1" d="M 837.5 331 L 836.5 333 L 837.5 331 Z " /><path fill="rgb(123,163,196)" stroke="rgb(123,163,196)" stroke-width="1" opacity="1" d="M 715.5 335 L 718.5 339 L 715.5 335 Z " /><path fill="rgb(123,163,196)" stroke="rgb(123,163,196)" stroke-width="1" opacity="1" d="M 833.5 336 L 823.5 347 L 833.5 336 Z " /><path fill="rgb(123,163,196)" stroke="rgb(123,163,196)" stroke-width="1" opacity="1" d="M 723.5 343 L 726.5 347 L 723.5 343 Z " /><path fill="rgb(123,163,196)" stroke="rgb(123,163,196)" stroke-width="1" opacity="1" d="M 729.5 348 L 730.5 350 L 729.5 348 Z " /><path fill="rgb(123,163,196)" stroke="rgb(123,163,196)" stroke-width="1" opacity="1" d="M 820.5 348 L 819.5 350 L 820.5 348 Z " /><path fill="rgb(123,163,196)" stroke="rgb(123,163,196)" stroke-width="1" opacity="1" d="M 814.5 352 L 813.5 354 L 814.5 352 Z " /><path fill="rgb(123,163,196)" stroke="rgb(123,163,196)" stroke-width="1" opacity="1" d="M 766.5 363 L 772 363.5 L 766.5 364 L 766.5 363 Z " /><path fill="rgb(123,163,196)" stroke="rgb(123,163,196)" stroke-width="1" opacity="1" d="M 778.5 363 L 784 363.5 L 778.5 364 L 778.5 363 Z " /><path fill="rgb(55,118,167)" stroke="rgb(55,118,167)" stroke-width="1" opacity="0.996078431372549" d="M 973.5 116 L 984 116.5 L 973.5 117 L 973.5 116 Z " /><path fill="rgb(55,118,167)" stroke="rgb(55,118,167)" stroke-width="1" opacity="0.996078431372549" d="M 1022.5 116 L 1033 116.5 L 1022.5 117 L 1022.5 116 Z " /><path fill="rgb(55,118,167)" stroke="rgb(55,118,167)" stroke-width="1" opacity="0.996078431372549" d="M 957.5 117 L 963 117.5 L 957.5 118 L 957.5 117 Z " /><path fill="rgb(55,118,167)" stroke="rgb(55,118,167)" stroke-width="1" opacity="0.996078431372549" d="M 1043.5 117 L 1048 117.5 L 1043.5 118 L 1043.5 117 Z " /><path fill="rgb(55,118,167)" stroke="rgb(55,118,167)" stroke-width="1" opacity="0.996078431372549" d="M 945.5 118 L 950 118.5 L 945.5 119 L 945.5 118 Z " /><path fill="rgb(55,118,167)" stroke="rgb(55,118,167)" stroke-width="1" opacity="0.996078431372549" d="M 1056.5 118 L 1060 118.5 L 1056.5 119 L 1056.5 118 Z " /><path fill="rgb(55,118,167)" stroke="rgb(55,118,167)" stroke-width="1" opacity="0.996078431372549" d="M 935.5 119 L 939 119.5 L 935.5 120 L 935.5 119 Z " /><path fill="rgb(55,118,167)" stroke="rgb(55,118,167)" stroke-width="1" opacity="0.996078431372549" d="M 1066.5 119 L 1070 119.5 L 1066.5 120 L 1066.5 119 Z " /><path fill="rgb(55,118,167)" stroke="rgb(55,118,167)" stroke-width="1" opacity="0.996078431372549" d="M 927.5 120 L 930 120.5 L 927.5 121 L 927.5 120 Z " /><path fill="rgb(55,118,167)" stroke="rgb(55,118,167)" stroke-width="1" opacity="0.996078431372549" d="M 1075.5 120 L 1078 120.5 L 1075.5 121 L 1075.5 120 Z " /><path fill="rgb(55,118,167)" stroke="rgb(55,118,167)" stroke-width="1" opacity="0.996078431372549" d="M 919.5 121 L 922 121.5 L 919.5 122 L 919.5 121 Z " /><path fill="rgb(55,118,167)" stroke="rgb(55,118,167)" stroke-width="1" opacity="0.996078431372549" d="M 1083.5 121 L 1086 121.5 L 1083.5 122 L 1083.5 121 Z " /><path fill="rgb(55,118,167)" stroke="rgb(55,118,167)" stroke-width="1" opacity="0.996078431372549" d="M 912.5 122 L 915 122.5 L 912.5 123 L 912.5 122 Z " /><path fill="rgb(55,118,167)" stroke="rgb(55,118,167)" stroke-width="1" opacity="0.996078431372549" d="M 1090.5 122 L 1093 122.5 L 1090.5 123 L 1090.5 122 Z " /><path fill="rgb(55,118,167)" stroke="rgb(55,118,167)" stroke-width="1" opacity="0.996078431372549" d="M 905.5 123 L 908 123.5 L 905.5 124 L 905.5 123 Z " /><path fill="rgb(55,118,167)" stroke="rgb(55,118,167)" stroke-width="1" opacity="0.996078431372549" d="M 1097.5 123 L 1100 123.5 L 1097.5 124 L 1097.5 123 Z " /><path fill="rgb(55,118,167)" stroke="rgb(55,118,167)" stroke-width="1" opacity="0.996078431372549" d="M 1103.5 124 L 1106 124.5 L 1103.5 125 L 1103.5 124 Z " /><path fill="rgb(55,118,167)" stroke="rgb(55,118,167)" stroke-width="1" opacity="0.996078431372549" d="M 893.5 125 L 896 125.5 L 893.5 126 L 893.5 125 Z " /><path fill="rgb(55,118,167)" stroke="rgb(55,118,167)" stroke-width="1" opacity="0.996078431372549" d="M 1109.5 125 L 1112 125.5 L 1109.5 126 L 1109.5 125 Z " /><path fill="rgb(55,118,167)" stroke="rgb(55,118,167)" stroke-width="1" opacity="0.996078431372549" d="M 887.5 126 L 890 126.5 L 887.5 127 L 887.5 126 Z " /><path fill="rgb(55,118,167)" stroke="rgb(55,118,167)" stroke-width="1" opacity="0.996078431372549" d="M 1120.5 127 L 1123 127.5 L 1120.5 128 L 1120.5 127 Z " /><path fill="rgb(55,118,167)" stroke="rgb(55,118,167)" stroke-width="1" opacity="0.996078431372549" d="M 976.5 186 L 1027.5 186 L 1028.5 187 L 1042.5 187 L 1043.5 188 L 1054.5 188 L 1055.5 189 L 1071.5 190 L 1072.5 191 L 1078.5 191 L 1112.5 197 L 1165.5 210 L 1208.5 224 L 1245.5 241 Q 1268.1 252.9 1285 270.5 L 1293 280.5 L 1263 281 L 1263 275 L 1256 275 L 1256 266.5 L 1255 264 L 1144.5 264 L 1144 263.5 L 1144 254.5 L 1143.5 254 L 1084.5 254 L 1083.5 247 L 965.5 247 L 965 246.5 L 965 237.5 L 964.5 237 L 838.5 237 L 838 236.5 L 838 220 L 813.5 220 Q 810.5 218.5 813.5 217 L 843.5 208 L 895.5 196 L 900.5 196 L 925.5 191 L 931.5 191 L 932.5 190 L 960.5 188 L 961.5 187 L 975.5 187 L 976.5 186 Z " /><path fill="rgb(55,118,167)" stroke="rgb(55,118,167)" stroke-width="1" opacity="0.996078431372549" d="M 1293.5 187 L 1294.5 189 L 1293.5 187 Z " /><path fill="rgb(55,118,167)" stroke="rgb(55,118,167)" stroke-width="1" opacity="0.996078431372549" d="M 1296.5 189 L 1297.5 191 L 1296.5 189 Z " /><path fill="rgb(55,118,167)" stroke="rgb(55,118,167)" stroke-width="1" opacity="0.996078431372549" d="M 1299.5 191 L 1300.5 193 L 1299.5 191 Z " /><path fill="rgb(55,118,167)" stroke="rgb(55,118,167)" stroke-width="1" opacity="0.996078431372549" d="M 1302.5 193 L 1303.5 195 L 1302.5 193 Z " /><path fill="rgb(55,118,167)" stroke="rgb(55,118,167)" stroke-width="1" opacity="0.996078431372549" d="M 1305.5 195 L 1306.5 197 L 1305.5 195 Z " /><path fill="rgb(55,118,167)" stroke="rgb(55,118,167)" stroke-width="1" opacity="0.996078431372549" d="M 1308.5 197 L 1310.5 200 L 1308.5 197 Z " /><path fill="rgb(55,118,167)" stroke="rgb(55,118,167)" stroke-width="1" opacity="0.996078431372549" d="M 1312.5 200 L 1315.5 204 L 1312.5 200 Z " /><path fill="rgb(55,118,167)" stroke="rgb(55,118,167)" stroke-width="1" opacity="0.996078431372549" d="M 1317.5 204 L 1341 226.5 L 1323.5 210 L 1317.5 204 Z " /><path fill="rgb(55,118,167)" stroke="rgb(55,118,167)" stroke-width="1" opacity="0.996078431372549" d="M 664.5 212 L 663.5 214 L 664.5 212 Z " /><path fill="rgb(55,118,167)" stroke="rgb(55,118,167)" stroke-width="1" opacity="0.996078431372549" d="M 660.5 215 L 658.5 218 L 660.5 215 Z " /><path fill="rgb(55,118,167)" stroke="rgb(55,118,167)" stroke-width="1" opacity="0.996078431372549" d="M 655.5 219 L 650.5 225 L 655.5 219 Z " /><path fill="rgb(55,118,167)" stroke="rgb(55,118,167)" stroke-width="1" opacity="0.996078431372549" d="M 646.5 227 L 636.5 238 L 646.5 227 Z " /><path fill="rgb(55,118,167)" stroke="rgb(55,118,167)" stroke-width="1" opacity="0.996078431372549" d="M 1341.5 228 L 1344.5 232 L 1341.5 228 Z " /><path fill="rgb(55,118,167)" stroke="rgb(55,118,167)" stroke-width="1" opacity="0.996078431372549" d="M 1345.5 233 L 1347.5 236 L 1345.5 233 Z " /><path fill="rgb(55,118,167)" stroke="rgb(55,118,167)" stroke-width="1" opacity="0.996078431372549" d="M 1348.5 237 L 1350.5 240 L 1348.5 237 Z " /><path fill="rgb(55,118,167)" stroke="rgb(55,118,167)" stroke-width="1" opacity="0.996078431372549" d="M 634.5 240 L 630.5 245 L 634.5 240 Z " /><path fill="rgb(55,118,167)" stroke="rgb(55,118,167)" stroke-width="1" opacity="0.996078431372549" d="M 629.5 246 L 627.5 249 L 629.5 246 Z " /><path fill="rgb(55,118,167)" stroke="rgb(55,118,167)" stroke-width="1" opacity="0.996078431372549" d="M 626.5 250 L 624.5 253 L 626.5 250 Z " /><path fill="rgb(55,118,167)" stroke="rgb(55,118,167)" stroke-width="1" opacity="0.996078431372549" d="M 622.5 256 L 621.5 258 L 622.5 256 Z " /><path fill="rgb(55,118,167)" stroke="rgb(55,118,167)" stroke-width="1" opacity="0.996078431372549" d="M 619.5 261 L 619 262.5 L 617.5 265 L 618 263.5 L 619.5 261 Z " /><path fill="rgb(55,118,167)" stroke="rgb(55,118,167)" stroke-width="1" opacity="0.996078431372549" d="M 610.5 284 L 611 286.5 L 610 286.5 L 610.5 284 Z " /><path fill="rgb(55,118,167)" stroke="rgb(55,118,167)" stroke-width="1" opacity="0.996078431372549" d="M 1371.5 289 L 1372 291.5 L 1371 291.5 L 1371.5 289 Z " /><path fill="rgb(55,118,167)" stroke="rgb(55,118,167)" stroke-width="1" opacity="0.996078431372549" d="M 609.5 290 L 610 293.5 L 609 293.5 L 609.5 290 Z " /><path fill="rgb(55,118,167)" stroke="rgb(55,118,167)" stroke-width="1" opacity="0.996078431372549" d="M 1372.5 294 L 1373 297.5 L 1372 297.5 L 1372.5 294 Z " /><path fill="rgb(55,118,167)" stroke="rgb(55,118,167)" stroke-width="1" opacity="0.996078431372549" d="M 1373.5 301 L 1374 307.5 L 1373 307.5 L 1373.5 301 Z " /><path fill="rgb(55,118,167)" stroke="rgb(55,118,167)" stroke-width="1" opacity="0.996078431372549" d="M 608.5 304 L 609 419.5 L 608 419.5 L 608.5 304 Z " /><path fill="rgb(55,118,167)" stroke="rgb(55,118,167)" stroke-width="1" opacity="0.996078431372549" d="M 1374.5 417 L 1375 589.5 L 1376 590.5 L 1376 697.5 Q 1378.3 698.7 1377 703.5 L 1376 704.5 L 1376 720.5 L 1375 721.5 L 1374.5 730 L 1374.5 417 Z " /><path fill="rgb(55,118,167)" stroke="rgb(55,118,167)" stroke-width="1" opacity="0.996078431372549" d="M 609.5 472 L 686 472.5 L 609.5 473 L 609.5 472 Z " /><path fill="rgb(55,118,167)" stroke="rgb(55,118,167)" stroke-width="1" opacity="0.996078431372549" d="M 1302.5 515 L 1304 515.5 L 1304 708.5 L 1300 731.5 Q 1295.1 748.6 1287 762.5 Q 1275.9 782.4 1259.5 797 Q 1243 813 1216.5 819 L 824.5 819 L 823.5 820 L 807.5 820 L 806.5 821 L 789.5 822 L 761.5 827 L 734.5 834 L 708.5 843 Q 680.8 853.8 656.5 868 Q 602.5 899.5 562 944.5 Q 531 978.5 508 1020.5 Q 490.5 1052.5 479 1090.5 L 470 1128.5 L 468 1148.5 L 467 1149.5 L 467 1157.5 L 466 1158.5 L 466 1172.5 L 465 1173.5 L 465 1238 L 380.5 1238 Q 348.3 1230.7 329 1210.5 L 317 1192.5 L 300 1155.5 L 289 1121.5 L 278 1076.5 L 267 1020.5 L 267 1014.5 L 262 985.5 L 260 954.5 L 259 953.5 L 258 901.5 L 259 900.5 L 260 870.5 L 261 869.5 Q 260.3 861.5 262 857 L 304.5 822 L 347.5 790 Q 384.8 763.8 425.5 741 Q 505.3 695.8 601.5 667 L 647.5 655 L 680.5 648 L 685.5 648 L 709.5 643 L 729.5 641 L 730.5 640 L 746.5 639 L 747.5 638 L 779.5 636 L 780.5 635 L 794.5 635 L 795.5 634 L 814.5 634 L 815.5 633 L 895.5 633 L 896.5 632 L 928.5 632 L 929.5 631 L 964.5 630 L 965.5 629 L 977.5 629 L 978.5 628 L 988.5 628 L 989.5 627 L 998.5 627 L 999.5 626 L 1031.5 623 L 1038.5 621 L 1062.5 618 L 1084.5 613 L 1106 613 L 1106 608 L 1108.5 608 Q 1222.9 578.9 1302.5 515 Z " /><path fill="rgb(55,118,167)" stroke="rgb(55,118,167)" stroke-width="1" opacity="0.996078431372549" d="M 374.5 542 L 381 542.5 L 374.5 543 L 374.5 542 Z " /><path fill="rgb(55,118,167)" stroke="rgb(55,118,167)" stroke-width="1" opacity="0.996078431372549" d="M 664.5 542 L 820 542.5 L 664.5 543 L 664.5 542 Z " /><path fill="rgb(55,118,167)" stroke="rgb(55,118,167)" stroke-width="1" opacity="0.996078431372549" d="M 365.5 543 L 370 543.5 L 365.5 544 L 365.5 543 Z " /><path fill="rgb(55,118,167)" stroke="rgb(55,118,167)" stroke-width="1" opacity="0.996078431372549" d="M 360.5 544 L 363 544.5 L 360.5 545 L 360.5 544 Z " /><path fill="rgb(55,118,167)" stroke="rgb(55,118,167)" stroke-width="1" opacity="0.996078431372549" d="M 355.5 545 L 358 545.5 L 355.5 546 L 355.5 545 Z " /><path fill="rgb(55,118,167)" stroke="rgb(55,118,167)" stroke-width="1" opacity="0.996078431372549" d="M 351.5 546 L 354 546.5 L 351.5 547 L 351.5 546 Z " /><path fill="rgb(55,118,167)" stroke="rgb(55,118,167)" stroke-width="1" opacity="0.996078431372549" d="M 347.5 547 L 350 547.5 L 345.5 549 L 345.5 548 L 347.5 547 Z " /><path fill="rgb(55,118,167)" stroke="rgb(55,118,167)" stroke-width="1" opacity="0.996078431372549" d="M 339.5 550 L 341 550.5 L 337.5 552 L 337.5 551 L 339.5 550 Z " /><path fill="rgb(55,118,167)" stroke="rgb(55,118,167)" stroke-width="1" opacity="0.996078431372549" d="M 320.5 560 L 319.5 562 L 320.5 560 Z " /><path fill="rgb(55,118,167)" stroke="rgb(55,118,167)" stroke-width="1" opacity="0.996078431372549" d="M 307.5 570 L 305.5 573 L 307.5 570 Z " /><path fill="rgb(55,118,167)" stroke="rgb(55,118,167)" stroke-width="1" opacity="0.996078431372549" d="M 293.5 584 L 291.5 587 L 293.5 584 Z " /><path fill="rgb(55,118,167)" stroke="rgb(55,118,167)" stroke-width="1" opacity="0.996078431372549" d="M 287.5 591 L 286.5 593 L 287.5 591 Z " /><path fill="rgb(55,118,167)" stroke="rgb(55,118,167)" stroke-width="1" opacity="0.996078431372549" d="M 283.5 596 L 282.5 598 L 283.5 596 Z " /><path fill="rgb(55,118,167)" stroke="rgb(55,118,167)" stroke-width="1" opacity="0.996078431372549" d="M 278.5 603 L 277.5 605 L 278.5 603 Z " /><path fill="rgb(55,118,167)" stroke="rgb(55,118,167)" stroke-width="1" opacity="0.996078431372549" d="M 1373.5 734 L 1374 738.5 L 1370 754.5 L 1365.5 765 L 1365 763.5 Q 1371.2 750.7 1373.5 734 Z " /><path fill="rgb(55,118,167)" stroke="rgb(55,118,167)" stroke-width="1" opacity="0.996078431372549" d="M 1364.5 766 L 1365 767.5 L 1363.5 770 L 1363 768.5 L 1364.5 766 Z " /><path fill="rgb(55,118,167)" stroke="rgb(55,118,167)" stroke-width="1" opacity="0.996078431372549" d="M 1361.5 773 L 1362 774.5 L 1360.5 777 L 1360 775.5 L 1361.5 773 Z " /><path fill="rgb(55,118,167)" stroke="rgb(55,118,167)" stroke-width="1" opacity="0.996078431372549" d="M 1355.5 786 L 1354.5 788 L 1355.5 786 Z " /><path fill="rgb(55,118,167)" stroke="rgb(55,118,167)" stroke-width="1" opacity="0.996078431372549" d="M 1351.5 793 L 1350.5 795 L 1351.5 793 Z " /><path fill="rgb(55,118,167)" stroke="rgb(55,118,167)" stroke-width="1" opacity="0.996078431372549" d="M 1349.5 796 L 1349 797.5 L 1347.5 800 L 1348 798.5 L 1349.5 796 Z " /><path fill="rgb(55,118,167)" stroke="rgb(55,118,167)" stroke-width="1" opacity="0.996078431372549" d="M 1346.5 801 L 1345.5 803 L 1346.5 801 Z " /><path fill="rgb(55,118,167)" stroke="rgb(55,118,167)" stroke-width="1" opacity="0.996078431372549" d="M 1344.5 804 L 1344 805.5 Q 1328.4 830.4 1306.5 849 L 1301.5 853 L 1307.5 846 L 1322 832.5 L 1344.5 804 Z " /><path fill="rgb(55,118,167)" stroke="rgb(55,118,167)" stroke-width="1" opacity="0.996078431372549" d="M 1299.5 853 L 1296.5 857 L 1299.5 853 Z " /><path fill="rgb(55,118,167)" stroke="rgb(55,118,167)" stroke-width="1" opacity="0.996078431372549" d="M 1294.5 857 L 1292.5 860 L 1294.5 857 Z " /><path fill="rgb(55,118,167)" stroke="rgb(55,118,167)" stroke-width="1" opacity="0.996078431372549" d="M 1290.5 860 L 1289.5 862 L 1290.5 860 Z " /><path fill="rgb(55,118,167)" stroke="rgb(55,118,167)" stroke-width="1" opacity="0.996078431372549" d="M 1287.5 862 L 1286.5 864 L 1287.5 862 Z " /><path fill="rgb(55,118,167)" stroke="rgb(55,118,167)" stroke-width="1" opacity="0.996078431372549" d="M 1284.5 864 L 1283.5 866 L 1284.5 864 Z " /><path fill="rgb(55,118,167)" stroke="rgb(55,118,167)" stroke-width="1" opacity="0.996078431372549" d="M 1281.5 866 L 1280.5 868 L 1281.5 866 Z " /><path fill="rgb(55,118,167)" stroke="rgb(55,118,167)" stroke-width="1" opacity="0.996078431372549" d="M 1274.5 870 L 1273.5 872 L 1274.5 870 Z " /><path fill="rgb(55,118,167)" stroke="rgb(55,118,167)" stroke-width="1" opacity="0.996078431372549" d="M 1264.5 875 L 1266 875.5 Q 1254.8 882.3 1240.5 886 L 1211.5 891 L 809.5 891 L 808.5 892 L 800.5 892 L 799.5 893 L 788.5 894 L 770.5 898 L 745.5 906 Q 717.5 916.5 693.5 931 Q 645.9 959.4 610 999.5 Q 591.6 1020.1 576.5 1044 L 577 1042.5 Q 600.2 1002.2 633.5 972 Q 669.1 938.6 715.5 916 L 750.5 902 L 771.5 896 L 797.5 891 L 813.5 890 L 814.5 889 L 1205.5 889 L 1206.5 888 L 1221.5 888 L 1222.5 887 L 1233.5 886 L 1254.5 880 L 1264.5 875 Z " /><path fill="rgb(55,118,167)" stroke="rgb(55,118,167)" stroke-width="1" opacity="0.996078431372549" d="M 190.5 883 L 191 885.5 L 190 885.5 L 190.5 883 Z " /><path fill="rgb(55,118,167)" stroke="rgb(55,118,167)" stroke-width="1" opacity="0.996078431372549" d="M 189.5 911 L 190 922.5 L 189 922.5 L 189.5 911 Z " /><path fill="rgb(55,118,167)" stroke="rgb(55,118,167)" stroke-width="1" opacity="0.996078431372549" d="M 190.5 944 L 191 952.5 L 190 952.5 L 190.5 944 Z " /><path fill="rgb(55,118,167)" stroke="rgb(55,118,167)" stroke-width="1" opacity="0.996078431372549" d="M 191.5 961 L 192 967.5 L 191 967.5 L 191.5 961 Z " /><path fill="rgb(55,118,167)" stroke="rgb(55,118,167)" stroke-width="1" opacity="0.996078431372549" d="M 192.5 974 L 193 978.5 L 192 978.5 L 192.5 974 Z " /><path fill="rgb(55,118,167)" stroke="rgb(55,118,167)" stroke-width="1" opacity="0.996078431372549" d="M 193.5 985 L 194 988.5 L 193 988.5 L 193.5 985 Z " /><path fill="rgb(55,118,167)" stroke="rgb(55,118,167)" stroke-width="1" opacity="0.996078431372549" d="M 194.5 994 L 195 997.5 L 194 997.5 L 194.5 994 Z " /><path fill="rgb(55,118,167)" stroke="rgb(55,118,167)" stroke-width="1" opacity="0.996078431372549" d="M 195.5 1002 L 196 1005.5 L 195 1005.5 L 195.5 1002 Z " /><path fill="rgb(55,118,167)" stroke="rgb(55,118,167)" stroke-width="1" opacity="0.996078431372549" d="M 196.5 1010 L 197 1012.5 L 196 1012.5 L 196.5 1010 Z " /><path fill="rgb(55,118,167)" stroke="rgb(55,118,167)" stroke-width="1" opacity="0.996078431372549" d="M 197.5 1017 L 198 1019.5 L 197 1019.5 L 197.5 1017 Z " /><path fill="rgb(55,118,167)" stroke="rgb(55,118,167)" stroke-width="1" opacity="0.996078431372549" d="M 198.5 1024 L 199 1026.5 L 198 1026.5 L 198.5 1024 Z " /><path fill="rgb(55,118,167)" stroke="rgb(55,118,167)" stroke-width="1" opacity="0.996078431372549" d="M 199.5 1030 L 200 1032.5 L 199 1032.5 L 199.5 1030 Z " /><path fill="rgb(55,118,167)" stroke="rgb(55,118,167)" stroke-width="1" opacity="0.996078431372549" d="M 200.5 1036 L 201 1038.5 L 200 1038.5 L 200.5 1036 Z " /><path fill="rgb(55,118,167)" stroke="rgb(55,118,167)" stroke-width="1" opacity="0.996078431372549" d="M 201.5 1042 L 202 1044.5 L 201 1044.5 L 201.5 1042 Z " /><path fill="rgb(55,118,167)" stroke="rgb(55,118,167)" stroke-width="1" opacity="0.996078431372549" d="M 575.5 1045 L 574.5 1047 L 575.5 1045 Z " /><path fill="rgb(55,118,167)" stroke="rgb(55,118,167)" stroke-width="1" opacity="0.996078431372549" d="M 202.5 1048 L 203 1050.5 L 202 1050.5 L 202.5 1048 Z " /><path fill="rgb(55,118,167)" stroke="rgb(55,118,167)" stroke-width="1" opacity="0.996078431372549" d="M 572.5 1050 L 572 1051.5 L 570.5 1054 L 571 1052.5 L 572.5 1050 Z " /><path fill="rgb(55,118,167)" stroke="rgb(55,118,167)" stroke-width="1" opacity="0.996078431372549" d="M 203.5 1053 L 204 1055.5 L 203 1055.5 L 203.5 1053 Z " /><path fill="rgb(55,118,167)" stroke="rgb(55,118,167)" stroke-width="1" opacity="0.996078431372549" d="M 565.5 1063 L 564.5 1065 L 565.5 1063 Z " /><path fill="rgb(55,118,167)" stroke="rgb(55,118,167)" stroke-width="1" opacity="0.996078431372549" d="M 206.5 1069 L 207 1071.5 L 206 1071.5 L 206.5 1069 Z " /><path fill="rgb(55,118,167)" stroke="rgb(55,118,167)" stroke-width="1" opacity="0.996078431372549" d="M 209.5 1083 L 210 1085.5 L 209 1085.5 L 209.5 1083 Z " /><path fill="rgb(55,118,167)" stroke="rgb(55,118,167)" stroke-width="1" opacity="0.996078431372549" d="M 216.5 1114 L 217 1116.5 L 216 1116.5 L 216.5 1114 Z " /><path fill="rgb(55,118,167)" stroke="rgb(55,118,167)" stroke-width="1" opacity="0.996078431372549" d="M 217.5 1118 L 218 1120.5 L 217 1120.5 L 217.5 1118 Z " /><path fill="rgb(55,118,167)" stroke="rgb(55,118,167)" stroke-width="1" opacity="0.996078431372549" d="M 218.5 1122 L 219 1124.5 L 218 1124.5 L 218.5 1122 Z " /><path fill="rgb(55,118,167)" stroke="rgb(55,118,167)" stroke-width="1" opacity="0.996078431372549" d="M 541.5 1126 L 542 1128.5 L 541 1128.5 L 541.5 1126 Z " /><path fill="rgb(55,118,167)" stroke="rgb(55,118,167)" stroke-width="1" opacity="0.996078431372549" d="M 538.5 1141 L 539 1143.5 L 538 1143.5 L 538.5 1141 Z " /><path fill="rgb(55,118,167)" stroke="rgb(55,118,167)" stroke-width="1" opacity="0.996078431372549" d="M 537.5 1147 L 538 1149.5 L 537 1149.5 L 537.5 1147 Z " /><path fill="rgb(55,118,167)" stroke="rgb(55,118,167)" stroke-width="1" opacity="0.996078431372549" d="M 536.5 1155 L 537 1158.5 L 536 1158.5 L 536.5 1155 Z " /><path fill="rgb(55,118,167)" stroke="rgb(55,118,167)" stroke-width="1" opacity="0.996078431372549" d="M 535.5 1164 L 536 1171.5 L 535 1171.5 L 535.5 1164 Z " /><path fill="rgb(55,118,167)" stroke="rgb(55,118,167)" stroke-width="1" opacity="0.996078431372549" d="M 262.5 1236 L 263.5 1238 L 262.5 1236 Z " /><path fill="rgb(55,118,167)" stroke="rgb(55,118,167)" stroke-width="1" opacity="0.996078431372549" d="M 264.5 1239 L 265.5 1241 L 264.5 1239 Z " /><path fill="rgb(55,118,167)" stroke="rgb(55,118,167)" stroke-width="1" opacity="0.996078431372549" d="M 266.5 1242 L 267.5 1244 L 266.5 1242 Z " /><path fill="rgb(55,118,167)" stroke="rgb(55,118,167)" stroke-width="1" opacity="0.996078431372549" d="M 271.5 1249 L 273.5 1252 L 271.5 1249 Z " /><path fill="rgb(55,118,167)" stroke="rgb(55,118,167)" stroke-width="1" opacity="0.996078431372549" d="M 275.5 1254 L 277.5 1257 L 275.5 1254 Z " /><path fill="rgb(55,118,167)" stroke="rgb(55,118,167)" stroke-width="1" opacity="0.996078431372549" d="M 280.5 1260 L 285.5 1266 L 280.5 1260 Z " /><path fill="rgb(55,118,167)" stroke="rgb(55,118,167)" stroke-width="1" opacity="0.996078431372549" d="M 287.5 1267 L 295.5 1276 L 287.5 1267 Z " /><path fill="rgb(55,118,167)" stroke="rgb(55,118,167)" stroke-width="1" opacity="0.996078431372549" d="M 299.5 1278 L 300.5 1280 L 299.5 1278 Z " /><path fill="rgb(55,118,167)" stroke="rgb(55,118,167)" stroke-width="1" opacity="0.996078431372549" d="M 303.5 1281 L 304.5 1283 L 303.5 1281 Z " /><path fill="rgb(55,118,167)" stroke="rgb(55,118,167)" stroke-width="1" opacity="0.996078431372549" d="M 307.5 1284 L 308.5 1286 L 307.5 1284 Z " /><path fill="rgb(55,118,167)" stroke="rgb(55,118,167)" stroke-width="1" opacity="0.996078431372549" d="M 359.5 1305 L 362 1305.5 L 359.5 1306 L 359.5 1305 Z " /><path fill="rgb(55,118,167)" stroke="rgb(55,118,167)" stroke-width="1" opacity="0.996078431372549" d="M 365.5 1306 L 369 1306.5 L 365.5 1307 L 365.5 1306 Z " /><path fill="rgb(55,118,167)" stroke="rgb(55,118,167)" stroke-width="1" opacity="0.996078431372549" d="M 375.5 1307 L 384 1307.5 L 375.5 1308 L 375.5 1307 Z " /><path fill="rgb(89,139,179)" stroke="rgb(89,139,179)" stroke-width="1" opacity="1" d="M 984.5 116 L 1042.5 117 L 1043.5 118 L 1055.5 118 L 1056.5 119 L 1065.5 119 L 1066.5 120 L 1074.5 120 L 1075.5 121 L 1096.5 123 L 1148.5 133 L 1207.5 149 L 1250.5 165 L 1289.5 185 Q 1318.8 202.7 1341 227.5 Q 1362.3 250.7 1371 286.5 L 1371 291.5 L 1373 298.5 L 1373 307.5 L 1374 308.5 L 1374 383.5 L 1373 383.5 L 1373 326 L 1360 326 L 1360 319.5 L 1359.5 319 L 1323.5 319 L 1323 318.5 L 1323 309 L 1303 309 L 1304 313.5 L 1304.5 514 Q 1341.5 486 1373.5 453 L 1374 733.5 Q 1367.3 767.3 1352 792.5 Q 1333.7 822.7 1308.5 846 Q 1290.2 863.2 1266.5 875 L 1245.5 883 L 1221.5 888 L 1206.5 888 L 1205.5 889 L 814.5 889 L 813.5 890 L 804.5 890 L 803.5 891 L 780.5 894 L 736.5 907 L 694.5 927 Q 650.5 952.5 617 988.5 Q 590.7 1016.7 571 1051.5 Q 553.5 1081.5 543 1118.5 L 538 1141.5 L 536 1163.5 L 535 1164.5 L 535 1308 L 384.5 1308 L 383.5 1307 L 362.5 1306 L 340.5 1301 L 317.5 1291 L 298.5 1278 L 287.5 1267 L 286 1267 L 270 1247.5 L 250 1214.5 L 235 1179.5 L 223 1141.5 L 208 1078.5 L 198 1023.5 L 195 994.5 L 194 993.5 L 194 985.5 L 193 984.5 L 193 974.5 L 192 973.5 L 190 927.5 L 226.5 890 L 261.5 858 L 262 860.5 L 261 861.5 L 260 881.5 L 259 882.5 L 258 932.5 L 259 933.5 L 259 953.5 L 260 954.5 L 261 976.5 L 262 977.5 L 262 985.5 L 263 986.5 L 263 993.5 L 267 1014.5 L 267 1020.5 L 278 1076.5 L 289 1121.5 L 297 1147.5 L 306 1170.5 L 320 1197.5 Q 326.6 1209.4 336.5 1218 Q 354.5 1232 380.5 1238 L 465 1238 L 465 1173.5 L 466 1172.5 L 466 1158.5 L 467 1157.5 L 468 1141.5 L 477 1097.5 L 489 1061.5 Q 525 974 590.5 916 Q 633.4 876.9 689.5 851 L 734.5 834 L 776.5 824 L 796.5 822 L 797.5 821 L 806.5 821 L 807.5 820 L 823.5 820 L 824.5 819 L 1216.5 819 Q 1250.8 810.3 1270 786.5 Q 1294.5 760 1303 717.5 L 1303 709.5 L 1304 708.5 L 1304 515 Q 1262.4 546.8 1212.5 571 L 1164.5 591 L 1127.5 603 L 1106 608 L 1105.5 613 L 1088.5 613 L 1088.5 612 L 1104.5 609 L 1106 607.5 L 1106 403 L 677.5 403 L 677 402.5 L 677 310.5 Q 683 291 697.5 280 L 699 280.5 L 698 281.5 L 698 292.5 L 701 308.5 L 707 323.5 Q 714.6 337.4 726.5 347 Q 738.5 357 755.5 362 L 766.5 364 L 783.5 364 Q 817 358.5 834 336.5 Q 844.1 325.1 849 308.5 L 852 292.5 L 852 281.5 L 851 280.5 L 850 268.5 L 846 256.5 Q 839.2 240.8 827.5 230 L 814 220.5 L 838 220 L 838 236.5 L 838.5 237 L 964.5 237 L 965 237.5 L 965 246.5 L 965.5 247 L 1083.5 247 L 1084.5 254 L 1143.5 254 L 1144 254.5 L 1144 263.5 L 1144.5 264 L 1254.5 264 L 1255 265.5 L 1256 266.5 L 1256 275 L 1263 275 L 1263 280.5 L 1263.5 281 L 1292.5 281 L 1289 276.5 L 1277.5 263 Q 1255.6 244.4 1227.5 232 L 1200.5 221 L 1154.5 207 L 1102.5 195 L 1072.5 191 L 1071.5 190 L 1064.5 190 L 1063.5 189 L 1043.5 188 L 1042.5 187 L 1028.5 187 L 1027.5 186 L 976.5 186 L 975.5 187 L 961.5 187 L 960.5 188 L 932.5 190 L 931.5 191 L 925.5 191 L 924.5 192 L 895.5 196 L 843.5 208 L 813.5 217 L 811.5 219 Q 796.4 208.6 770.5 209 L 753.5 212 L 738.5 218 Q 724.9 225.4 715.5 237 L 667 237 L 667 220 L 657.5 220 L 638 238.5 Q 618.2 258.7 610.5 291 L 610 287.5 L 614 272.5 L 624 253.5 Q 635.1 237.6 649.5 225 Q 675 201.5 707.5 185 L 748.5 166 L 795.5 149 L 855.5 133 L 901.5 124 L 929.5 121 L 930.5 120 L 938.5 120 L 939.5 119 L 962.5 118 L 963.5 117 L 983.5 117 L 984.5 116 Z " /><path fill="rgb(89,139,179)" stroke="rgb(89,139,179)" stroke-width="1" opacity="1" d="M 609.5 294 L 610 323.5 L 609 323.5 L 609.5 294 Z " /><path fill="rgb(89,139,179)" stroke="rgb(89,139,179)" stroke-width="1" opacity="1" d="M 608.5 420 L 609 471.5 L 608 471.5 L 608.5 420 Z " /><path fill="rgb(89,139,179)" stroke="rgb(89,139,179)" stroke-width="1" opacity="1" d="M 686.5 472 L 1035.5 472 L 1037 473.5 L 1037 544 L 938.5 544 L 938.5 543 L 1036 543 L 1036 473 L 686.5 473 L 686.5 472 Z " /><path fill="rgb(89,139,179)" stroke="rgb(89,139,179)" stroke-width="1" opacity="1" d="M 381.5 542 L 664 542.5 L 381.5 543 L 381.5 542 Z " /><path fill="rgb(89,139,179)" stroke="rgb(89,139,179)" stroke-width="1" opacity="1" d="M 370.5 543 L 374 543.5 L 370.5 544 L 370.5 543 Z " /><path fill="rgb(89,139,179)" stroke="rgb(89,139,179)" stroke-width="1" opacity="1" d="M 363.5 544 L 366 544.5 L 363.5 545 L 363.5 544 Z " /><path fill="rgb(89,139,179)" stroke="rgb(89,139,179)" stroke-width="1" opacity="1" d="M 358.5 545 L 361 545.5 L 358.5 546 L 358.5 545 Z " /><path fill="rgb(89,139,179)" stroke="rgb(89,139,179)" stroke-width="1" opacity="1" d="M 324.5 558 L 323.5 560 L 324.5 558 Z " /><path fill="rgb(89,139,179)" stroke="rgb(89,139,179)" stroke-width="1" opacity="1" d="M 315.5 564 L 314.5 566 L 315.5 564 Z " /><path fill="rgb(89,139,179)" stroke="rgb(89,139,179)" stroke-width="1" opacity="1" d="M 311.5 567 L 309.5 570 L 311.5 567 Z " /><path fill="rgb(89,139,179)" stroke="rgb(89,139,179)" stroke-width="1" opacity="1" d="M 304.5 573 L 294.5 584 L 304.5 573 Z " /><path fill="rgb(89,139,179)" stroke="rgb(89,139,179)" stroke-width="1" opacity="1" d="M 289.5 589 L 288.5 591 L 289.5 589 Z " /><path fill="rgb(89,139,179)" stroke="rgb(89,139,179)" stroke-width="1" opacity="1" d="M 285.5 594 L 284.5 596 L 285.5 594 Z " /><path fill="rgb(89,139,179)" stroke="rgb(89,139,179)" stroke-width="1" opacity="1" d="M 282.5 598 L 281.5 600 L 282.5 598 Z " /><path fill="rgb(89,139,179)" stroke="rgb(89,139,179)" stroke-width="1" opacity="1" d="M 280.5 601 L 279.5 603 L 280.5 601 Z " /><path fill="rgb(89,139,179)" stroke="rgb(89,139,179)" stroke-width="1" opacity="1" d="M 274.5 610 L 273.5 612 L 274.5 610 Z " /><path fill="rgb(89,139,179)" stroke="rgb(89,139,179)" stroke-width="1" opacity="1" d="M 1081.5 613 L 1084 613.5 L 1081.5 614 L 1081.5 613 Z " /><path fill="rgb(89,139,179)" stroke="rgb(89,139,179)" stroke-width="1" opacity="1" d="M 1047 614 L 1078 614.5 L 1053.5 619 L 1047 618 L 1047 614 Z " /><path fill="rgb(89,139,179)" stroke="rgb(89,139,179)" stroke-width="1" opacity="1" d="M 1048.5 619 L 1051 619.5 L 1048.5 620 L 1048.5 619 Z " /><path fill="rgb(89,139,179)" stroke="rgb(89,139,179)" stroke-width="1" opacity="1" d="M 1041.5 620 L 1045 620.5 L 1041.5 621 L 1041.5 620 Z " /><path fill="rgb(89,139,179)" stroke="rgb(89,139,179)" stroke-width="1" opacity="1" d="M 1034.5 621 L 1038 621.5 L 1034.5 622 L 1034.5 621 Z " /><path fill="rgb(89,139,179)" stroke="rgb(89,139,179)" stroke-width="1" opacity="1" d="M 1028.5 622 L 1032 622.5 L 1028.5 623 L 1028.5 622 Z " /><path fill="rgb(89,139,179)" stroke="rgb(89,139,179)" stroke-width="1" opacity="1" d="M 1020.5 623 L 1024 623.5 L 1020.5 624 L 1020.5 623 Z " /><path fill="rgb(89,139,179)" stroke="rgb(89,139,179)" stroke-width="1" opacity="1" d="M 1011.5 624 L 1016 624.5 L 1011.5 625 L 1011.5 624 Z " /><path fill="rgb(89,139,179)" stroke="rgb(89,139,179)" stroke-width="1" opacity="1" d="M 1003.5 625 L 1008 625.5 L 1003.5 626 L 1003.5 625 Z " /><path fill="rgb(89,139,179)" stroke="rgb(89,139,179)" stroke-width="1" opacity="1" d="M 993.5 626 L 999 626.5 L 993.5 627 L 993.5 626 Z " /><path fill="rgb(89,139,179)" stroke="rgb(89,139,179)" stroke-width="1" opacity="1" d="M 983.5 627 L 989 627.5 L 983.5 628 L 983.5 627 Z " /><path fill="rgb(89,139,179)" stroke="rgb(89,139,179)" stroke-width="1" opacity="1" d="M 970.5 628 L 978 628.5 L 970.5 629 L 970.5 628 Z " /><path fill="rgb(89,139,179)" stroke="rgb(89,139,179)" stroke-width="1" opacity="1" d="M 957.5 629 L 965 629.5 L 957.5 630 L 957.5 629 Z " /><path fill="rgb(89,139,179)" stroke="rgb(89,139,179)" stroke-width="1" opacity="1" d="M 940.5 630 L 950 630.5 L 940.5 631 L 940.5 630 Z " /><path fill="rgb(89,139,179)" stroke="rgb(89,139,179)" stroke-width="1" opacity="1" d="M 914.5 631 L 929 631.5 L 914.5 632 L 914.5 631 Z " /><path fill="rgb(89,139,179)" stroke="rgb(89,139,179)" stroke-width="1" opacity="1" d="M 830.5 632 L 896 632.5 L 830.5 633 L 830.5 632 Z " /><path fill="rgb(89,139,179)" stroke="rgb(89,139,179)" stroke-width="1" opacity="1" d="M 802.5 633 L 815 633.5 L 802.5 634 L 802.5 633 Z " /><path fill="rgb(89,139,179)" stroke="rgb(89,139,179)" stroke-width="1" opacity="1" d="M 785.5 634 L 795 634.5 L 785.5 635 L 785.5 634 Z " /><path fill="rgb(89,139,179)" stroke="rgb(89,139,179)" stroke-width="1" opacity="1" d="M 772.5 635 L 780 635.5 L 772.5 636 L 772.5 635 Z " /><path fill="rgb(89,139,179)" stroke="rgb(89,139,179)" stroke-width="1" opacity="1" d="M 761.5 636 L 767 636.5 L 761.5 637 L 761.5 636 Z " /><path fill="rgb(89,139,179)" stroke="rgb(89,139,179)" stroke-width="1" opacity="1" d="M 751.5 637 L 757 637.5 L 751.5 638 L 751.5 637 Z " /><path fill="rgb(89,139,179)" stroke="rgb(89,139,179)" stroke-width="1" opacity="1" d="M 742.5 638 L 747 638.5 L 742.5 639 L 742.5 638 Z " /><path fill="rgb(89,139,179)" stroke="rgb(89,139,179)" stroke-width="1" opacity="1" d="M 734.5 639 L 739 639.5 L 734.5 640 L 734.5 639 Z " /><path fill="rgb(89,139,179)" stroke="rgb(89,139,179)" stroke-width="1" opacity="1" d="M 726.5 640 L 730 640.5 L 726.5 641 L 726.5 640 Z " /><path fill="rgb(89,139,179)" stroke="rgb(89,139,179)" stroke-width="1" opacity="1" d="M 719.5 641 L 723 641.5 L 719.5 642 L 719.5 641 Z " /><path fill="rgb(89,139,179)" stroke="rgb(89,139,179)" stroke-width="1" opacity="1" d="M 712.5 642 L 716 642.5 L 712.5 643 L 712.5 642 Z " /><path fill="rgb(89,139,179)" stroke="rgb(89,139,179)" stroke-width="1" opacity="1" d="M 706.5 643 L 709 643.5 L 706.5 644 L 706.5 643 Z " /><path fill="rgb(89,139,179)" stroke="rgb(89,139,179)" stroke-width="1" opacity="1" d="M 700.5 644 L 703 644.5 L 700.5 645 L 700.5 644 Z " /><path fill="rgb(89,139,179)" stroke="rgb(89,139,179)" stroke-width="1" opacity="1" d="M 694.5 645 L 697 645.5 L 694.5 646 L 694.5 645 Z " /><path fill="rgb(89,139,179)" stroke="rgb(89,139,179)" stroke-width="1" opacity="1" d="M 688.5 646 L 691 646.5 L 688.5 647 L 688.5 646 Z " /><path fill="rgb(89,139,179)" stroke="rgb(89,139,179)" stroke-width="1" opacity="1" d="M 683.5 647 L 686 647.5 L 683.5 648 L 683.5 647 Z " /><path fill="rgb(89,139,179)" stroke="rgb(89,139,179)" stroke-width="1" opacity="1" d="M 672.5 649 L 675 649.5 L 672.5 650 L 672.5 649 Z " /><path fill="rgb(89,139,179)" stroke="rgb(89,139,179)" stroke-width="1" opacity="1" d="M 667.5 650 L 670 650.5 L 667.5 651 L 667.5 650 Z " /><path fill="rgb(89,139,179)" stroke="rgb(89,139,179)" stroke-width="1" opacity="1" d="M 658.5 652 L 661 652.5 L 658.5 653 L 658.5 652 Z " /><path fill="rgb(89,139,179)" stroke="rgb(89,139,179)" stroke-width="1" opacity="1" d="M 649.5 654 L 652 654.5 L 649.5 655 L 649.5 654 Z " /><path fill="rgb(89,139,179)" stroke="rgb(89,139,179)" stroke-width="1" opacity="1" d="M 640.5 656 L 643 656.5 L 640.5 657 L 640.5 656 Z " /><path fill="rgb(89,139,179)" stroke="rgb(89,139,179)" stroke-width="1" opacity="1" d="M 636.5 657 L 639 657.5 L 636.5 658 L 636.5 657 Z " /><path fill="rgb(89,139,179)" stroke="rgb(89,139,179)" stroke-width="1" opacity="1" d="M 632.5 658 L 635 658.5 L 632.5 659 L 632.5 658 Z " /><path fill="rgb(89,139,179)" stroke="rgb(89,139,179)" stroke-width="1" opacity="1" d="M 628.5 659 L 631 659.5 L 628.5 660 L 628.5 659 Z " /><path fill="rgb(89,139,179)" stroke="rgb(89,139,179)" stroke-width="1" opacity="1" d="M 624.5 660 L 627 660.5 L 624.5 661 L 624.5 660 Z " /><path fill="rgb(89,139,179)" stroke="rgb(89,139,179)" stroke-width="1" opacity="1" d="M 474.5 715 L 476 715.5 L 473.5 717 L 474.5 715 Z " /><path fill="rgb(89,139,179)" stroke="rgb(89,139,179)" stroke-width="1" opacity="1" d="M 433.5 736 L 432.5 738 L 433.5 736 Z " /><path fill="rgb(89,139,179)" stroke="rgb(89,139,179)" stroke-width="1" opacity="1" d="M 424.5 741 L 423.5 743 L 424.5 741 Z " /><path fill="rgb(89,139,179)" stroke="rgb(89,139,179)" stroke-width="1" opacity="1" d="M 417.5 745 L 416.5 747 L 417.5 745 Z " /><path fill="rgb(89,139,179)" stroke="rgb(89,139,179)" stroke-width="1" opacity="1" d="M 405.5 752 L 404.5 754 L 405.5 752 Z " /><path fill="rgb(89,139,179)" stroke="rgb(89,139,179)" stroke-width="1" opacity="1" d="M 400.5 755 L 399.5 757 L 400.5 755 Z " /><path fill="rgb(89,139,179)" stroke="rgb(89,139,179)" stroke-width="1" opacity="1" d="M 395.5 758 L 394.5 760 L 395.5 758 Z " /><path fill="rgb(89,139,179)" stroke="rgb(89,139,179)" stroke-width="1" opacity="1" d="M 387.5 763 L 386.5 765 L 387.5 763 Z " /><path fill="rgb(89,139,179)" stroke="rgb(89,139,179)" stroke-width="1" opacity="1" d="M 379.5 768 L 378.5 770 L 379.5 768 Z " /><path fill="rgb(89,139,179)" stroke="rgb(89,139,179)" stroke-width="1" opacity="1" d="M 376.5 770 L 375.5 772 L 376.5 770 Z " /><path fill="rgb(89,139,179)" stroke="rgb(89,139,179)" stroke-width="1" opacity="1" d="M 373.5 772 L 372.5 774 L 373.5 772 Z " /><path fill="rgb(89,139,179)" stroke="rgb(89,139,179)" stroke-width="1" opacity="1" d="M 361.5 780 L 360.5 782 L 361.5 780 Z " /><path fill="rgb(89,139,179)" stroke="rgb(89,139,179)" stroke-width="1" opacity="1" d="M 358.5 782 L 357.5 784 L 358.5 782 Z " /><path fill="rgb(89,139,179)" stroke="rgb(89,139,179)" stroke-width="1" opacity="1" d="M 355.5 784 L 354.5 786 L 355.5 784 Z " /><path fill="rgb(89,139,179)" stroke="rgb(89,139,179)" stroke-width="1" opacity="1" d="M 352.5 786 L 351.5 788 L 352.5 786 Z " /><path fill="rgb(89,139,179)" stroke="rgb(89,139,179)" stroke-width="1" opacity="1" d="M 345.5 791 L 344.5 793 L 345.5 791 Z " /><path fill="rgb(89,139,179)" stroke="rgb(89,139,179)" stroke-width="1" opacity="1" d="M 342.5 793 L 341.5 795 L 342.5 793 Z " /><path fill="rgb(89,139,179)" stroke="rgb(89,139,179)" stroke-width="1" opacity="1" d="M 338.5 796 L 337.5 798 L 338.5 796 Z " /><path fill="rgb(89,139,179)" stroke="rgb(89,139,179)" stroke-width="1" opacity="1" d="M 331.5 801 L 330.5 803 L 331.5 801 Z " /><path fill="rgb(89,139,179)" stroke="rgb(89,139,179)" stroke-width="1" opacity="1" d="M 327.5 804 L 326.5 806 L 327.5 804 Z " /><path fill="rgb(89,139,179)" stroke="rgb(89,139,179)" stroke-width="1" opacity="1" d="M 323.5 807 L 322.5 809 L 323.5 807 Z " /><path fill="rgb(89,139,179)" stroke="rgb(89,139,179)" stroke-width="1" opacity="1" d="M 319.5 810 L 318.5 812 L 319.5 810 Z " /><path fill="rgb(89,139,179)" stroke="rgb(89,139,179)" stroke-width="1" opacity="1" d="M 315.5 813 L 314.5 815 L 315.5 813 Z " /><path fill="rgb(89,139,179)" stroke="rgb(89,139,179)" stroke-width="1" opacity="1" d="M 311.5 816 L 309.5 819 L 311.5 816 Z " /><path fill="rgb(89,139,179)" stroke="rgb(89,139,179)" stroke-width="1" opacity="1" d="M 306.5 820 L 305.5 822 L 306.5 820 Z " /><path fill="rgb(89,139,179)" stroke="rgb(89,139,179)" stroke-width="1" opacity="1" d="M 302.5 823 L 300.5 826 L 302.5 823 Z " /><path fill="rgb(89,139,179)" stroke="rgb(89,139,179)" stroke-width="1" opacity="1" d="M 297.5 827 L 295.5 830 L 297.5 827 Z " /><path fill="rgb(89,139,179)" stroke="rgb(89,139,179)" stroke-width="1" opacity="1" d="M 291.5 832 L 290.5 834 L 291.5 832 Z " /><path fill="rgb(89,139,179)" stroke="rgb(89,139,179)" stroke-width="1" opacity="1" d="M 286.5 836 L 284.5 839 L 286.5 836 Z " /><path fill="rgb(89,139,179)" stroke="rgb(89,139,179)" stroke-width="1" opacity="1" d="M 280.5 841 L 278.5 844 L 280.5 841 Z " /><path fill="rgb(89,139,179)" stroke="rgb(89,139,179)" stroke-width="1" opacity="1" d="M 274.5 846 L 271.5 850 L 274.5 846 Z " /><path fill="rgb(89,139,179)" stroke="rgb(89,139,179)" stroke-width="1" opacity="1" d="M 193.5 851 L 194 853.5 L 193 853.5 L 193.5 851 Z " /><path fill="rgb(89,139,179)" stroke="rgb(89,139,179)" stroke-width="1" opacity="1" d="M 266.5 853 L 263.5 857 L 266.5 853 Z " /><path fill="rgb(89,139,179)" stroke="rgb(89,139,179)" stroke-width="1" opacity="1" d="M 192.5 860 L 193 862.5 L 192 862.5 L 192.5 860 Z " /><path fill="rgb(89,139,179)" stroke="rgb(89,139,179)" stroke-width="1" opacity="1" d="M 191.5 871 L 192 874.5 L 191 874.5 L 191.5 871 Z " /><path fill="rgb(89,139,179)" stroke="rgb(89,139,179)" stroke-width="1" opacity="1" d="M 190.5 886 L 191 891.5 L 190 891.5 L 190.5 886 Z " /><path fill="rgb(254,224,104)" stroke="rgb(254,224,104)" stroke-width="1" opacity="1" d="M 1669.5 613 L 1676 613.5 L 1669.5 614 L 1669.5 613 Z " /><path fill="rgb(254,224,104)" stroke="rgb(254,224,104)" stroke-width="1" opacity="1" d="M 1680.5 614 L 1685 614.5 L 1680.5 615 L 1680.5 614 Z " /><path fill="rgb(254,224,104)" stroke="rgb(254,224,104)" stroke-width="1" opacity="1" d="M 1687.5 615 L 1690 615.5 L 1687.5 616 L 1687.5 615 Z " /><path fill="rgb(254,224,104)" stroke="rgb(254,224,104)" stroke-width="1" opacity="1" d="M 1697.5 617 L 1700 617.5 L 1697.5 618 L 1697.5 617 Z " /><path fill="rgb(254,224,104)" stroke="rgb(254,224,104)" stroke-width="1" opacity="1" d="M 1733.5 631 L 1734.5 633 L 1733.5 631 Z " /><path fill="rgb(254,224,104)" stroke="rgb(254,224,104)" stroke-width="1" opacity="1" d="M 1742.5 637 L 1743.5 639 L 1742.5 637 Z " /><path fill="rgb(254,224,104)" stroke="rgb(254,224,104)" stroke-width="1" opacity="1" d="M 1745.5 639 L 1747.5 642 L 1745.5 639 Z " /><path fill="rgb(254,224,104)" stroke="rgb(254,224,104)" stroke-width="1" opacity="1" d="M 1750.5 643 L 1753.5 647 L 1750.5 643 Z " /><path fill="rgb(254,224,104)" stroke="rgb(254,224,104)" stroke-width="1" opacity="1" d="M 1766.5 659 L 1769.5 663 L 1766.5 659 Z " /><path fill="rgb(254,224,104)" stroke="rgb(254,224,104)" stroke-width="1" opacity="1" d="M 1772.5 666 L 1773.5 668 L 1772.5 666 Z " /><path fill="rgb(254,224,104)" stroke="rgb(254,224,104)" stroke-width="1" opacity="1" d="M 1776.5 671 L 1777.5 673 L 1776.5 671 Z " /><path fill="rgb(254,224,104)" stroke="rgb(254,224,104)" stroke-width="1" opacity="1" d="M 1778.5 674 L 1779.5 676 L 1778.5 674 Z " /><path fill="rgb(254,224,104)" stroke="rgb(254,224,104)" stroke-width="1" opacity="1" d="M 1583 682 L 1663.5 682 Q 1664.7 684.3 1669.5 683 Q 1698.5 690 1717 707.5 L 1734 733.5 L 1751 773.5 L 1763 815.5 L 1778 887 L 1539.5 887 L 1539 885.5 Q 1562.8 843.3 1575 789.5 L 1580 761.5 L 1581 745.5 L 1582 744.5 L 1583 682 Z " /><path fill="rgb(254,224,104)" stroke="rgb(254,224,104)" stroke-width="1" opacity="1" d="M 1512.5 732 L 1513 737.5 L 1512 737.5 L 1512.5 732 Z " /><path fill="rgb(254,224,104)" stroke="rgb(254,224,104)" stroke-width="1" opacity="1" d="M 1511.5 743 L 1512 746.5 L 1511 746.5 L 1511.5 743 Z " /><path fill="rgb(254,224,104)" stroke="rgb(254,224,104)" stroke-width="1" opacity="1" d="M 1510.5 752 L 1511 754.5 L 1510 754.5 L 1510.5 752 Z " /><path fill="rgb(254,224,104)" stroke="rgb(254,224,104)" stroke-width="1" opacity="1" d="M 1509.5 758 L 1510 760.5 L 1509 760.5 L 1509.5 758 Z " /><path fill="rgb(254,224,104)" stroke="rgb(254,224,104)" stroke-width="1" opacity="1" d="M 1831.5 804 L 1832 806.5 L 1831 806.5 L 1831.5 804 Z " /><path fill="rgb(254,224,104)" stroke="rgb(254,224,104)" stroke-width="1" opacity="1" d="M 1835.5 821 L 1836 823.5 L 1835 823.5 L 1835.5 821 Z " /><path fill="rgb(254,224,104)" stroke="rgb(254,224,104)" stroke-width="1" opacity="1" d="M 1837.5 830 L 1838 832.5 L 1837 832.5 L 1837.5 830 Z " /><path fill="rgb(254,224,104)" stroke="rgb(254,224,104)" stroke-width="1" opacity="1" d="M 1840.5 844 L 1841 846.5 L 1840 846.5 L 1840.5 844 Z " /><path fill="rgb(254,224,104)" stroke="rgb(254,224,104)" stroke-width="1" opacity="1" d="M 1841.5 849 L 1842 851.5 L 1841 851.5 L 1841.5 849 Z " /><path fill="rgb(254,224,104)" stroke="rgb(254,224,104)" stroke-width="1" opacity="1" d="M 1842.5 854 L 1843 856.5 L 1842 856.5 L 1842.5 854 Z " /><path fill="rgb(254,224,104)" stroke="rgb(254,224,104)" stroke-width="1" opacity="1" d="M 1474.5 857 L 1474 858.5 L 1472.5 861 L 1473 859.5 L 1474.5 857 Z " /><path fill="rgb(254,224,104)" stroke="rgb(254,224,104)" stroke-width="1" opacity="1" d="M 1470.5 864 L 1469.5 866 L 1470.5 864 Z " /><path fill="rgb(254,224,104)" stroke="rgb(254,224,104)" stroke-width="1" opacity="1" d="M 1467.5 869 L 1466.5 871 L 1467.5 869 Z " /><path fill="rgb(254,224,104)" stroke="rgb(254,224,104)" stroke-width="1" opacity="1" d="M 1845.5 870 L 1846 872.5 L 1845 872.5 L 1845.5 870 Z " /><path fill="rgb(254,224,104)" stroke="rgb(254,224,104)" stroke-width="1" opacity="1" d="M 1465.5 872 L 1464.5 874 L 1465.5 872 Z " /><path fill="rgb(254,224,104)" stroke="rgb(254,224,104)" stroke-width="1" opacity="1" d="M 1460.5 880 L 1459.5 882 L 1460.5 880 Z " /><path fill="rgb(254,224,104)" stroke="rgb(254,224,104)" stroke-width="1" opacity="1" d="M 1458.5 883 L 1457 885.5 L 1454.5 889 L 1456 886.5 L 1458.5 883 Z " /><path fill="rgb(254,224,104)" stroke="rgb(254,224,104)" stroke-width="1" opacity="1" d="M 1453.5 890 L 1451.5 893 L 1453.5 890 Z " /><path fill="rgb(254,224,104)" stroke="rgb(254,224,104)" stroke-width="1" opacity="1" d="M 1450.5 894 L 1449.5 896 L 1450.5 894 Z " /><path fill="rgb(254,224,104)" stroke="rgb(254,224,104)" stroke-width="1" opacity="1" d="M 1849.5 894 L 1850 896.5 L 1849 896.5 L 1849.5 894 Z " /><path fill="rgb(254,224,104)" stroke="rgb(254,224,104)" stroke-width="1" opacity="1" d="M 1448.5 897 L 1445.5 901 L 1448.5 897 Z " /><path fill="rgb(254,224,104)" stroke="rgb(254,224,104)" stroke-width="1" opacity="1" d="M 1444.5 902 L 1442 905.5 Q 1427.9 924.9 1410.5 941 Q 1369.3 981.3 1313.5 1007 Q 1290.3 1017.3 1263.5 1024 L 1235.5 1029 L 1227.5 1029 L 1226.5 1030 L 1207.5 1030 L 1207.5 1029 L 1229.5 1028 L 1257.5 1023 Q 1288.3 1015.8 1314.5 1004 Q 1382.2 972.7 1429 920.5 L 1444.5 902 Z " /><path fill="rgb(254,224,104)" stroke="rgb(254,224,104)" stroke-width="1" opacity="1" d="M 1851.5 908 L 1852 910.5 L 1851 910.5 L 1851.5 908 Z " /><path fill="rgb(254,224,104)" stroke="rgb(254,224,104)" stroke-width="1" opacity="1" d="M 1852.5 915 L 1853 917.5 L 1852 917.5 L 1852.5 915 Z " /><path fill="rgb(254,224,104)" stroke="rgb(254,224,104)" stroke-width="1" opacity="1" d="M 1853.5 923 L 1854 926.5 L 1853 926.5 L 1853.5 923 Z " /><path fill="rgb(254,224,104)" stroke="rgb(254,224,104)" stroke-width="1" opacity="1" d="M 1854.5 932 L 1855 941.5 L 1856 942.5 L 1856 953.5 L 1857 954.5 L 1857 969.5 L 1858 970.5 L 1858 1034.5 L 1857 1035.5 L 1857 1048.5 L 1856 1049.5 L 1854 1076.5 L 1846 1121.5 L 1838 1153.5 L 1820 1208.5 L 1802 1255.5 L 1782 1297.5 Q 1767.3 1325.3 1745.5 1346 Q 1722.8 1369.3 1684.5 1377 L 1664.5 1378 L 1663.5 1379 L 1566.5 1379 L 1565.5 1378 L 1140.5 1378 L 1139.5 1377 L 1012 1377 L 1012 1447.5 L 1012.5 1448 L 1440 1448 L 1440 1614.5 L 1436 1636.5 L 1426 1660.5 Q 1414.9 1679.4 1399.5 1694 Q 1374.8 1718.3 1342.5 1735 L 1294.5 1757 L 1234.5 1777 L 1186.5 1789 L 1161.5 1794 L 1131.5 1798 L 1130.5 1799 L 1115.5 1800 L 1114.5 1801 L 1094.5 1802 L 1093.5 1803 L 1079.5 1803 L 1078.5 1804 L 1011.5 1804 L 1010.5 1803 L 996.5 1803 L 995.5 1802 L 967.5 1800 L 966.5 1799 L 960.5 1799 L 959.5 1798 L 953.5 1798 L 929.5 1793 L 924.5 1793 L 876.5 1782 L 826.5 1767 Q 790.9 1754.6 760.5 1737 Q 732.6 1720.9 711 1698.5 Q 694.5 1681.5 684 1658.5 L 677 1638.5 L 674 1622.5 Q 675.7 1616.3 673 1614.5 L 672 1406.5 Q 704.4 1371.9 741 1341.5 Q 740.3 1339.3 742.5 1340 Q 810.9 1278.9 893.5 1232 Q 938.9 1205.9 989.5 1185 Q 1028.7 1168.7 1071.5 1156 L 1143.5 1138 L 1148.5 1138 L 1170.5 1133 L 1176.5 1133 L 1182.5 1131 L 1219.5 1127 L 1220.5 1126 L 1252.5 1124 L 1253.5 1123 L 1267.5 1123 L 1268.5 1122 L 1288.5 1122 L 1289.5 1121 L 1370.5 1121 L 1371.5 1120 L 1422.5 1119 L 1423.5 1118 L 1462.5 1116 L 1463.5 1115 L 1471.5 1115 L 1472.5 1114 L 1504.5 1111 L 1505.5 1110 L 1535.5 1106 L 1573.5 1098 L 1634.5 1080 Q 1701.8 1055.8 1755.5 1018 L 1805.5 980 L 1854 933.5 L 1854.5 932 Z M 1268 1552 L 1246 1558 L 1228 1569 Q 1216 1579 1208 1593 L 1202 1608 L 1200 1617 L 1200 1625 L 1199 1626 L 1201 1647 Q 1204 1658 1209 1667 L 1210 1668 L 1208 1666 L 1196 1666 L 1195 1665 L 1088 1663 L 1087 1662 L 1052 1662 L 1051 1661 L 944 1659 L 943 1658 L 908 1658 L 907 1657 L 872 1657 L 871 1656 L 836 1656 L 835 1655 L 800 1655 L 799 1654 L 766 1655 Q 784 1671 807 1682 Q 836 1697 870 1707 L 919 1720 L 953 1727 L 978 1730 L 979 1731 L 986 1731 L 987 1732 L 1007 1733 L 1008 1734 L 1024 1734 L 1025 1735 L 1084 1734 L 1085 1733 L 1106 1732 L 1107 1731 L 1135 1728 L 1176 1720 L 1219 1709 L 1244 1701 L 1245 1699 L 1253 1703 L 1267 1706 L 1286 1706 L 1296 1704 Q 1313 1699 1325 1689 Q 1346 1672 1352 1641 L 1352 1620 L 1349 1606 Q 1344 1590 1334 1579 Q 1321 1564 1302 1556 L 1284 1552 L 1268 1552 Z " /><path fill="rgb(254,224,104)" stroke="rgb(254,224,104)" stroke-width="1" opacity="1" d="M 824.5 1030 L 828 1030.5 L 824.5 1031 L 824.5 1030 Z " /><path fill="rgb(254,224,104)" stroke="rgb(254,224,104)" stroke-width="1" opacity="1" d="M 815.5 1031 L 819 1031.5 L 815.5 1032 L 815.5 1031 Z " /><path fill="rgb(254,224,104)" stroke="rgb(254,224,104)" stroke-width="1" opacity="1" d="M 808.5 1032 L 813 1032.5 Q 779.7 1038.2 755.5 1053 Q 730.3 1067.8 712 1089.5 L 693.5 1117 L 694 1115.5 Q 707.2 1087.2 729.5 1068 Q 759.5 1040.5 808.5 1032 Z " /><path fill="rgb(254,224,104)" stroke="rgb(254,224,104)" stroke-width="1" opacity="1" d="M 672.5 1189 L 673 1191.5 L 672 1191.5 L 672.5 1189 Z " /><path fill="rgb(254,224,104)" stroke="rgb(254,224,104)" stroke-width="1" opacity="1" d="M 671.5 1208 L 672 1234.5 L 671 1234.5 L 671.5 1208 Z " /><path fill="rgb(254,224,104)" stroke="rgb(254,224,104)" stroke-width="1" opacity="1" d="M 1211.5 1671 L 1217 1677.5 L 1213 1674.5 L 1211.5 1671 Z " /><path fill="rgb(254,224,104)" stroke="rgb(254,224,104)" stroke-width="1" opacity="1" d="M 1217.5 1679 L 1226.5 1689 L 1217.5 1679 Z " /><path fill="rgb(254,224,104)" stroke="rgb(254,224,104)" stroke-width="1" opacity="1" d="M 1228.5 1689 L 1230.5 1692 L 1228.5 1689 Z " /><path fill="rgb(254,224,104)" stroke="rgb(254,224,104)" stroke-width="1" opacity="1" d="M 1232.5 1692 L 1233.5 1694 L 1232.5 1692 Z " /><path fill="rgb(254,224,104)" stroke="rgb(254,224,104)" stroke-width="1" opacity="1" d="M 1235.5 1694 L 1239 1696.5 L 1237.5 1696 L 1235.5 1694 Z " /><path fill="rgb(35,79,115)" stroke="rgb(35,79,115)" stroke-width="1" opacity="0.996078431372549" d="M 980.5 46 L 982.5 46 L 1023.5 46 L 1024.5 47 L 1026.5 47 L 1044.5 47 L 1045.5 48 L 1057.5 48 L 1058.5 49 L 1060.5 49 L 1070.5 49 L 1071.5 50 L 1079.5 50 L 1080.5 51 L 1087.5 51 L 1088.5 52 L 1115.5 55 L 1161.5 64 L 1215.5 78 L 1259.5 93 Q 1296.8 107.2 1328.5 127 Q 1362.5 148 1389 176.5 Q 1411.3 200.2 1426 231.5 L 1438 264.5 L 1442 283.5 L 1443 300.5 L 1444 301.5 L 1444 739.5 L 1443 740.5 L 1443 748.5 L 1441 758.5 L 1434 782.5 Q 1425.6 805.1 1414 824.5 Q 1388.4 868.4 1351.5 901 Q 1324.5 925.5 1289.5 942 L 1256.5 954 L 1225.5 960 L 1212.5 960 L 1211.5 961 L 846.5 961 L 844.5 961 L 812.5 961 Q 811 963.5 805.5 962 L 776.5 969 L 755.5 977 Q 701.8 1002.3 664 1043.5 Q 644.7 1064.2 630 1089.5 L 616 1119.5 L 607 1152.5 L 606 1165.5 L 605 1166.5 L 605 1377 L 602.5 1378 L 380.5 1378 L 379.5 1377 L 365.5 1377 L 364.5 1376 L 357.5 1376 L 356.5 1375 L 339.5 1373 L 323.5 1369 L 301.5 1361 Q 260.2 1342.8 232 1311.5 L 230 1308.5 Q 208.2 1285.8 193 1256.5 L 175 1218.5 L 166 1194.5 L 155 1158.5 L 139 1090.5 L 139 1085.5 L 135 1070.5 L 135 1065.5 L 128 1028.5 L 128 1022.5 L 127 1021.5 L 125 997.5 L 124 996.5 L 124 987.5 L 123 986.5 L 123 976.5 L 122 975.5 L 121 944.5 L 120 943.5 L 120 891.5 L 121 888.5 L 121 873.5 L 122 872.5 L 122 859.5 L 124 849.5 L 124 840.5 L 134 782.5 L 148 730.5 L 169 669.5 L 195 608.5 L 212 577.5 Q 229.7 548.2 253.5 525 Q 289.3 488.8 348.5 476 L 353.5 476 L 360.5 474 L 368.5 474 L 369.5 473 L 539 473 L 539 291.5 L 540 290.5 L 540 288.5 L 540 280.5 L 541 279.5 L 542 268.5 L 552 238.5 L 569 209.5 L 588 186 Q 590.7 187.1 590 184.5 L 594 181.5 L 595.5 179 Q 625.5 151 662.5 130 L 703.5 109 L 750.5 90 L 794.5 76 L 846.5 63 L 851.5 63 L 861.5 60 L 866.5 60 L 877.5 57 L 895.5 55 L 902.5 53 L 934.5 50 L 935.5 49 L 944.5 49 L 945.5 48 L 947.5 48 L 979.5 47 L 980.5 46 Z M 974 116 L 973 117 L 958 117 L 957 118 L 946 118 L 945 119 L 920 121 L 863 131 L 822 141 L 771 157 Q 733 171 700 189 Q 670 205 647 227 Q 628 243 616 267 L 610 285 L 609 304 L 608 305 L 608 472 L 610 473 L 1036 473 L 1036 474 L 1036 543 L 821 543 L 820 542 L 375 542 L 374 543 L 366 543 L 356 545 L 340 550 Q 321 558 308 570 Q 282 593 265 625 L 241 677 L 222 729 L 208 774 L 198 818 L 195 842 L 194 843 L 194 850 L 193 851 L 192 869 L 191 870 L 190 911 L 189 912 L 190 953 L 191 954 L 191 968 L 192 969 L 192 979 L 193 980 L 195 1006 L 196 1007 L 196 1013 L 197 1014 L 197 1020 L 198 1021 L 202 1051 L 206 1067 L 206 1072 L 220 1133 L 233 1176 L 248 1212 Q 261 1239 280 1261 Q 296 1279 319 1292 Q 336 1302 360 1306 L 375 1307 L 376 1308 L 535 1308 L 535 1173 L 536 1172 L 537 1151 L 542 1125 Q 550 1092 564 1066 Q 583 1029 610 1000 Q 644 962 689 934 L 731 912 Q 753 902 779 896 L 801 892 L 809 892 L 810 891 L 1212 891 L 1213 890 L 1222 890 L 1233 888 L 1258 880 Q 1285 868 1307 849 Q 1341 819 1362 775 L 1373 744 L 1375 722 L 1376 721 L 1376 705 L 1377 704 Q 1378 699 1376 698 L 1376 591 L 1375 590 L 1374 302 L 1371 285 L 1364 264 Q 1355 242 1341 227 Q 1319 201 1289 184 Q 1250 161 1203 147 L 1142 131 L 1086 121 L 1061 119 L 1060 118 L 1049 118 L 1048 117 L 1034 117 L 1033 116 L 974 116 Z " /><path fill="rgb(35,79,115)" stroke="rgb(35,79,115)" stroke-width="1" opacity="0.996078431372549" d="M 661.5 1746 L 665.5 1751 L 661.5 1746 Z " /><path fill="rgb(35,79,115)" stroke="rgb(35,79,115)" stroke-width="1" opacity="0.996078431372549" d="M 669.5 1754 L 670.5 1756 L 669.5 1754 Z " /><path fill="rgb(254,241,184)" stroke="rgb(254,241,184)" stroke-width="1" opacity="1" d="M 1513 613 L 1668.5 613 L 1669.5 614 L 1679.5 614 L 1680.5 615 L 1692.5 616 Q 1739.6 626.9 1766 658.5 Q 1782.7 677.3 1795 700.5 L 1806 723.5 L 1821 765.5 L 1831 802.5 L 1831 806.5 L 1835 819.5 L 1845 867.5 L 1845 872.5 L 1851 903.5 L 1854 933.5 L 1805.5 980 L 1755.5 1018 Q 1701.8 1055.8 1634.5 1080 L 1573.5 1098 L 1535.5 1106 L 1505.5 1110 L 1504.5 1111 L 1472.5 1114 L 1471.5 1115 L 1463.5 1115 L 1462.5 1116 L 1423.5 1118 L 1422.5 1119 L 1371.5 1120 L 1370.5 1121 L 1289.5 1121 L 1288.5 1122 L 1268.5 1122 L 1267.5 1123 L 1253.5 1123 L 1252.5 1124 L 1220.5 1126 L 1219.5 1127 L 1182.5 1131 L 1176.5 1133 L 1170.5 1133 L 1148.5 1138 L 1143.5 1138 L 1071.5 1156 Q 1028.7 1168.7 989.5 1185 Q 948.8 1201.8 911.5 1222 Q 823.3 1269.8 750.5 1333 L 750.5 1331 L 742 1331 L 742 1308.5 L 741 1306.5 L 742 1303.5 L 741 1302.5 L 740 1203.5 L 741 1202.5 L 741 1190 L 673.5 1190 L 673 1189.5 L 673 1182.5 L 679 1152.5 Q 684.3 1133.3 693 1117.5 Q 708.1 1089.6 731.5 1070 Q 750.6 1053.6 775.5 1043 L 803.5 1034 L 819.5 1031 L 827.5 1031 L 828.5 1030 L 1226.5 1030 L 1227.5 1029 L 1235.5 1029 L 1263.5 1024 Q 1310.1 1012.1 1346.5 990 Q 1388.4 964.9 1421 930.5 Q 1447.5 903 1468 869.5 Q 1488.3 837.3 1501 797.5 L 1507 775.5 L 1511 754.5 L 1512 738.5 L 1513 737.5 L 1513 613 Z M 1583 682 L 1582 745 L 1581 746 L 1580 762 L 1575 790 Q 1563 843 1539 886 L 1540 887 L 1778 887 L 1763 816 L 1751 774 L 1734 734 L 1717 708 Q 1699 690 1670 683 Q 1665 684 1664 682 L 1583 682 Z " /><path fill="rgb(254,241,184)" stroke="rgb(254,241,184)" stroke-width="1" opacity="1" d="M 672.5 1192 L 673 1198.5 L 672 1198.5 L 672.5 1192 Z " /><path fill="rgb(254,241,184)" stroke="rgb(254,241,184)" stroke-width="1" opacity="1" d="M 747.5 1334 L 742.5 1340 L 747.5 1334 Z " /><path fill="rgb(254,241,184)" stroke="rgb(254,241,184)" stroke-width="1" opacity="1" d="M 740.5 1341 L 739.5 1343 L 740.5 1341 Z " /><path fill="rgb(254,241,184)" stroke="rgb(254,241,184)" stroke-width="1" opacity="1" d="M 737.5 1343 L 731.5 1350 L 737.5 1343 Z " /><path fill="rgb(254,241,184)" stroke="rgb(254,241,184)" stroke-width="1" opacity="1" d="M 729.5 1350 L 721.5 1359 L 729.5 1350 Z " /><path fill="rgb(254,241,184)" stroke="rgb(254,241,184)" stroke-width="1" opacity="1" d="M 718.5 1360 L 707.5 1372 L 718.5 1360 Z " /><path fill="rgb(254,241,184)" stroke="rgb(254,241,184)" stroke-width="1" opacity="1" d="M 672.5 1367 L 673.5 1404 L 704 1374.5 L 672 1405.5 L 672.5 1367 Z " /><path fill="rgb(254,241,184)" stroke="rgb(254,241,184)" stroke-width="1" opacity="1" d="M 1267.5 1552 L 1271 1552.5 L 1267.5 1553 L 1267.5 1552 Z " /><path fill="rgb(254,241,184)" stroke="rgb(254,241,184)" stroke-width="1" opacity="1" d="M 1280.5 1552 L 1284 1552.5 L 1280.5 1553 L 1280.5 1552 Z " /><path fill="rgb(254,241,184)" stroke="rgb(254,241,184)" stroke-width="1" opacity="1" d="M 1320.5 1566 L 1321.5 1568 L 1320.5 1566 Z " /><path fill="rgb(254,241,184)" stroke="rgb(254,241,184)" stroke-width="1" opacity="1" d="M 1227.5 1569 L 1226.5 1571 L 1227.5 1569 Z " /><path fill="rgb(254,241,184)" stroke="rgb(254,241,184)" stroke-width="1" opacity="1" d="M 1325.5 1570 L 1333.5 1579 L 1325.5 1570 Z " /><path fill="rgb(254,241,184)" stroke="rgb(254,241,184)" stroke-width="1" opacity="1" d="M 1218.5 1578 L 1216.5 1581 L 1218.5 1578 Z " /><path fill="rgb(254,241,184)" stroke="rgb(254,241,184)" stroke-width="1" opacity="1" d="M 1336.5 1582 L 1337.5 1584 L 1336.5 1582 Z " /><path fill="rgb(254,241,184)" stroke="rgb(254,241,184)" stroke-width="1" opacity="1" d="M 1214.5 1583 L 1213.5 1585 L 1214.5 1583 Z " /><path fill="rgb(254,241,184)" stroke="rgb(254,241,184)" stroke-width="1" opacity="1" d="M 1351.5 1619 L 1352 1621.5 L 1351 1621.5 L 1351.5 1619 Z " /><path fill="rgb(254,241,184)" stroke="rgb(254,241,184)" stroke-width="1" opacity="1" d="M 1199.5 1625 L 1200 1632.5 L 1199 1632.5 L 1199.5 1625 Z " /><path fill="rgb(254,241,184)" stroke="rgb(254,241,184)" stroke-width="1" opacity="1" d="M 1351.5 1636 L 1352 1640.5 L 1351 1640.5 L 1351.5 1636 Z " /><path fill="rgb(254,241,184)" stroke="rgb(254,241,184)" stroke-width="1" opacity="1" d="M 1337.5 1674 L 1336.5 1676 L 1337.5 1674 Z " /><path fill="rgb(254,241,184)" stroke="rgb(254,241,184)" stroke-width="1" opacity="1" d="M 1217.5 1678 L 1218.5 1680 L 1217.5 1678 Z " /><path fill="rgb(254,241,184)" stroke="rgb(254,241,184)" stroke-width="1" opacity="1" d="M 1334.5 1678 L 1324.5 1689 L 1334.5 1678 Z " /><path fill="rgb(254,241,184)" stroke="rgb(254,241,184)" stroke-width="1" opacity="1" d="M 1225.5 1686 L 1227.5 1689 L 1225.5 1686 Z " /><path fill="rgb(254,241,184)" stroke="rgb(254,241,184)" stroke-width="1" opacity="1" d="M 1321.5 1690 L 1320.5 1692 L 1321.5 1690 Z " /><path fill="rgb(254,241,184)" stroke="rgb(254,241,184)" stroke-width="1" opacity="1" d="M 1315.5 1694 L 1314.5 1696 L 1315.5 1694 Z " /><path fill="rgb(254,241,184)" stroke="rgb(254,241,184)" stroke-width="1" opacity="1" d="M 1289.5 1704 L 1292 1704.5 L 1289.5 1705 L 1289.5 1704 Z " /><path fill="rgb(254,241,184)" stroke="rgb(254,241,184)" stroke-width="1" opacity="1" d="M 1266.5 1705 L 1271 1705.5 L 1266.5 1706 L 1266.5 1705 Z " /><path fill="rgb(254,241,184)" stroke="rgb(254,241,184)" stroke-width="1" opacity="1" d="M 1281.5 1705 L 1286 1705.5 L 1281.5 1706 L 1281.5 1705 Z " /><path fill="rgb(211,170,13)" stroke="rgb(211,170,13)" stroke-width="1" opacity="0.996078431372549" d="M 1444 543 L 1674.5 543 L 1675.5 544 L 1686.5 544 L 1687.5 545 L 1700.5 546 L 1722.5 551 L 1760.5 566 L 1787.5 583 L 1811.5 605 L 1813 605 L 1834 630.5 L 1855 663.5 L 1875 706.5 L 1893 761.5 L 1907 819.5 L 1915 860.5 L 1915 865.5 L 1917 871.5 L 1921 904.5 L 1922 905.5 L 1924 930.5 L 1925 931.5 L 1925 941.5 L 1926 942.5 L 1926 953.5 L 1927 954.5 L 1927 970.5 L 1928 971.5 L 1928 1035.5 L 1927 1036.5 L 1927 1051.5 L 1926 1052.5 L 1926 1063.5 L 1925 1064.5 L 1924 1081.5 L 1923 1082.5 L 1919 1114.5 L 1913 1143.5 L 1899 1194.5 L 1881 1246.5 L 1858 1302.5 L 1838 1340.5 Q 1819.4 1372.4 1793.5 1397 Q 1776.7 1413.2 1755.5 1425 Q 1731.1 1438.6 1699.5 1445 L 1687.5 1446 L 1686.5 1447 L 1677.5 1447 L 1676.5 1448 L 1510 1448 L 1510 1501.5 L 1509 1502.5 L 1509 1621.5 L 1508 1622.5 L 1508 1629.5 L 1505 1646.5 Q 1497 1679 1481 1703.5 Q 1462.6 1732.1 1437.5 1754 Q 1410 1778 1376.5 1796 L 1346.5 1811 L 1320.5 1822 L 1264.5 1841 L 1197.5 1858 L 1140.5 1868 L 1115.5 1870 L 1114.5 1871 L 1105.5 1871 L 1104.5 1872 L 1092.5 1872 L 1091.5 1873 L 1073.5 1873 L 1072.5 1874 L 1017.5 1874 L 1016.5 1873 L 999.5 1873 L 998.5 1872 L 986.5 1872 L 985.5 1871 L 958.5 1869 L 957.5 1868 L 919.5 1863 L 853.5 1848 L 798.5 1831 Q 763.2 1818.3 732.5 1801 Q 695.3 1780.2 666 1751.5 Q 641.7 1727.8 625 1696.5 L 614 1671.5 L 606 1641.5 L 605 1629.5 L 604 1628.5 L 604 1619.5 L 603 1618.5 L 602 1378.5 L 605 1377 L 605 1166.5 L 609 1143.5 L 618 1114.5 L 633 1084.5 Q 653.1 1052.1 680.5 1027 Q 712.8 996.8 755.5 977 L 783.5 967 L 815.5 961 L 1213.5 961 L 1214.5 960 L 1225.5 960 L 1226.5 959 L 1244.5 957 Q 1285 947.5 1315.5 928 Q 1351.5 905 1379 873.5 Q 1401.1 848.1 1418 817.5 L 1434 782.5 L 1442 754.5 L 1443 741.5 L 1444 740.5 L 1444 543 Z M 1513 613 L 1513 732 L 1512 733 L 1512 743 L 1511 744 L 1511 752 L 1509 759 L 1509 764 L 1503 790 Q 1492 826 1475 857 Q 1455 892 1429 921 Q 1393 960 1346 988 Q 1323 1001 1298 1011 L 1270 1020 L 1249 1025 L 1231 1027 L 1230 1028 L 1222 1028 L 1221 1029 L 1208 1029 L 1207 1030 L 825 1030 L 824 1031 L 816 1031 L 794 1035 L 770 1043 Q 747 1053 730 1068 Q 703 1092 688 1127 L 676 1164 L 673 1181 L 673 1189 L 672 1190 L 672 1208 L 671 1209 L 671 1235 L 672 1236 L 673 1615 L 674 1616 L 674 1623 L 677 1639 L 684 1659 Q 694 1682 711 1699 Q 733 1721 761 1737 Q 791 1755 827 1767 L 877 1782 L 925 1793 L 930 1793 L 954 1798 L 960 1798 L 961 1799 L 967 1799 L 968 1800 L 996 1802 L 997 1803 L 1011 1803 L 1012 1804 L 1079 1804 L 1080 1803 L 1094 1803 L 1095 1802 L 1115 1801 L 1116 1800 L 1131 1799 L 1132 1798 L 1162 1794 L 1187 1789 L 1235 1777 L 1295 1757 L 1343 1735 Q 1375 1718 1400 1694 Q 1415 1679 1426 1661 L 1436 1637 L 1440 1615 L 1440 1448 L 1013 1448 L 1012 1448 L 1012 1377 L 1140 1377 L 1141 1378 L 1566 1378 L 1567 1379 L 1664 1379 L 1665 1378 L 1685 1377 Q 1723 1369 1746 1346 Q 1767 1325 1782 1298 L 1802 1256 L 1820 1209 L 1838 1154 L 1846 1122 L 1854 1077 L 1856 1050 L 1857 1049 L 1857 1036 L 1858 1035 L 1858 971 L 1857 970 L 1857 955 L 1856 954 L 1854 924 L 1853 923 L 1853 916 L 1852 915 L 1852 909 L 1851 908 L 1851 902 L 1850 901 L 1846 871 L 1832 805 L 1821 764 L 1806 723 Q 1792 689 1770 663 Q 1755 644 1734 631 L 1713 621 L 1685 614 L 1677 614 L 1676 613 L 1513 613 Z " /><path fill="rgb(211,170,13)" stroke="rgb(211,170,13)" stroke-width="1" opacity="0.996078431372549" d="M 766.5 1654 L 870.5 1656 L 871.5 1657 L 906.5 1657 L 907.5 1658 L 942.5 1658 L 943.5 1659 L 978.5 1659 L 979.5 1660 L 1014.5 1660 L 1015.5 1661 L 1050.5 1661 L 1051.5 1662 L 1086.5 1662 L 1087.5 1663 L 1122.5 1663 L 1123.5 1664 L 1158.5 1664 L 1159.5 1665 L 1194.5 1665 L 1195.5 1666 L 1207.5 1666 L 1210 1668.5 Q 1216.2 1680.8 1226.5 1689 Q 1233.9 1695.9 1244 1699 Q 1245.3 1702 1241.5 1701 L 1207.5 1712 L 1175.5 1720 L 1134.5 1728 L 1106.5 1731 L 1105.5 1732 L 1084.5 1733 L 1083.5 1734 L 1024.5 1735 L 1023.5 1734 L 1007.5 1734 L 1006.5 1733 L 986.5 1732 L 985.5 1731 L 978.5 1731 L 977.5 1730 L 952.5 1727 L 918.5 1720 L 869.5 1707 Q 835.6 1696.9 806.5 1682 L 778.5 1665 L 768.5 1657 L 766.5 1654 Z " /><path fill="rgb(254,253,248)" stroke="rgb(254,253,248)" stroke-width="1" opacity="1" d="M 765.5 210 L 784.5 210 L 803.5 215 Q 822 223 834 237.5 Q 844 249.5 849 266.5 L 851 276.5 L 851 297.5 Q 844.9 331.4 821.5 348 Q 804.1 363.1 772.5 364 L 771.5 363 L 757.5 362 L 745.5 358 Q 729.8 351.2 719 339.5 Q 707.7 327.8 702 310.5 L 699 297.5 L 699 275.5 Q 705 243.5 726.5 227 L 746.5 215 L 765.5 210 Z " /><path fill="rgb(254,253,248)" stroke="rgb(254,253,248)" stroke-width="1" opacity="1" d="M 673 1190 L 740.5 1190 L 741 1190.5 L 741 1202.5 L 740 1203.5 L 740 1232.5 L 741 1233.5 L 741 1302.5 L 742 1305.5 L 741 1307.5 L 742 1308.5 L 742 1331 L 751 1331.5 Q 710.2 1365.7 673.5 1404 L 673 1367.5 L 672 1366.5 L 672 1364.5 L 672 1199.5 L 673 1198.5 L 673 1190 Z " /><path fill="rgb(254,253,248)" stroke="rgb(254,253,248)" stroke-width="1" opacity="1" d="M 1271.5 1552 L 1288.5 1553 L 1305.5 1558 Q 1324.3 1566.3 1336 1581.5 Q 1344.6 1591.9 1349 1606.5 L 1352 1622.5 L 1352 1635.5 L 1349 1651.5 L 1341 1669.5 L 1322.5 1690 Q 1311.8 1698.3 1297.5 1703 L 1280.5 1706 L 1271.5 1706 L 1270.5 1705 L 1262.5 1705 L 1248.5 1701 Q 1230.7 1693.8 1219 1680.5 Q 1207.5 1668 1202 1649.5 L 1200 1639.5 L 1200 1618.5 Q 1205.6 1587.6 1225.5 1571 Q 1235.4 1562.4 1248.5 1557 L 1271.5 1552 Z " /><path fill="rgb(0,0,0)" stroke="rgb(0,0,0)" stroke-width="1" opacity="0.16470588235294117" d="M 593.5 181 L 592.5 183 L 593.5 181 Z " /><path fill="rgb(0,0,0)" stroke="rgb(0,0,0)" stroke-width="1" opacity="0.16470588235294117" d="M 377.5 1377 L 380 1377.5 L 377.5 1378 L 377.5 1377 Z " /><path fill="rgb(0,0,0)" stroke="rgb(0,0,0)" stroke-width="1" opacity="0.16470588235294117" d="M 598.5 1498 L 602 1498.5 L 602 1557 Q 549.6 1572.9 504.5 1597 Q 464.7 1617.7 435 1648.5 Q 420.5 1663.5 412 1684.5 L 408 1698.5 L 407 1719.5 L 413 1742.5 L 419 1754.5 Q 432 1775.5 450.5 1791 Q 469.5 1807 491.5 1820 L 543.5 1846 L 576.5 1859 L 615.5 1872 L 692.5 1892 L 773.5 1907 L 779.5 1907 L 801.5 1911 L 808.5 1911 L 809.5 1912 L 816.5 1912 L 817.5 1913 L 824.5 1913 L 825.5 1914 L 842.5 1915 L 843.5 1916 L 873.5 1918 L 874.5 1919 L 914.5 1921 L 915.5 1922 L 931.5 1922 L 932.5 1923 L 953.5 1923 L 954.5 1924 L 1059.5 1925 L 1060.5 1924 L 1093.5 1924 L 1094.5 1923 L 1115.5 1923 L 1116.5 1922 L 1161.5 1920 L 1162.5 1919 L 1184.5 1918 L 1185.5 1917 L 1194.5 1917 L 1195.5 1916 L 1204.5 1916 L 1205.5 1915 L 1213.5 1915 L 1214.5 1914 L 1246.5 1911 L 1247.5 1910 L 1274.5 1907 L 1341.5 1895 L 1415.5 1877 L 1451.5 1866 L 1487.5 1853 L 1538.5 1830 Q 1583.5 1807.5 1616 1772.5 Q 1627.6 1759.6 1635 1742.5 L 1641 1719.5 L 1641 1705.5 L 1638 1690.5 L 1631 1673.5 Q 1618.7 1651.8 1600.5 1636 Q 1583 1620.5 1562.5 1608 L 1510 1580.5 L 1510 1515.5 L 1513.5 1515 L 1579.5 1537 Q 1618.4 1551.6 1653.5 1570 Q 1700.8 1594.2 1737 1629.5 Q 1754.3 1646.7 1766 1669.5 L 1774 1692.5 L 1775 1704.5 L 1776 1705.5 L 1776 1718.5 L 1772 1739.5 L 1763 1760.5 Q 1748.5 1785.5 1727.5 1804 Q 1700.8 1827.8 1668.5 1846 Q 1636.4 1864.4 1600.5 1879 L 1569.5 1891 L 1524.5 1906 L 1486.5 1917 L 1424.5 1932 L 1368.5 1943 L 1363.5 1943 L 1332.5 1949 L 1326.5 1949 L 1319.5 1951 L 1283.5 1955 L 1282.5 1956 L 1275.5 1956 L 1274.5 1957 L 1267.5 1957 L 1266.5 1958 L 1240.5 1960 L 1239.5 1961 L 1208.5 1963 L 1207.5 1964 L 1169.5 1966 L 1168.5 1967 L 1154.5 1967 L 1153.5 1968 L 1136.5 1968 L 1135.5 1969 L 1086.5 1970 L 1085.5 1971 L 962.5 1971 L 961.5 1970 L 912.5 1969 L 911.5 1968 L 894.5 1968 L 893.5 1967 L 852.5 1965 L 851.5 1964 L 840.5 1964 L 839.5 1963 L 808.5 1961 L 807.5 1960 L 799.5 1960 L 798.5 1959 L 790.5 1959 L 789.5 1958 L 781.5 1958 L 780.5 1957 L 757.5 1955 L 749.5 1953 L 742.5 1953 L 741.5 1952 L 715.5 1949 L 642.5 1936 L 550.5 1914 L 478.5 1891 Q 439.2 1876.8 403.5 1859 Q 374.9 1844.6 349.5 1827 Q 325.5 1810.5 306 1789.5 Q 288.6 1770.9 278 1745.5 L 273 1726.5 L 272 1705.5 L 275 1688.5 L 283 1667.5 Q 296.3 1643.3 315.5 1625 Q 338.6 1603.1 366.5 1586 Q 396.2 1567.7 429.5 1553 L 468.5 1537 L 508.5 1523 L 555.5 1509 L 598.5 1498 Z " /><path fill="rgb(0,0,0)" stroke="rgb(0,0,0)" stroke-width="1" opacity="0.3607843137254902" d="M 602.5 1484 L 603 1618.5 L 604 1619.5 L 604 1628.5 L 605 1629.5 L 607 1646.5 L 614 1671.5 L 630 1705.5 Q 647 1734 670.5 1756 Q 702.5 1786 743.5 1807 Q 782.7 1827.3 828.5 1841 L 894.5 1858 L 958.5 1869 L 985.5 1871 L 986.5 1872 L 998.5 1872 L 999.5 1873 L 1016.5 1873 L 1017.5 1874 L 1072.5 1874 L 1073.5 1873 L 1091.5 1873 L 1092.5 1872 L 1124.5 1870 L 1125.5 1869 L 1140.5 1868 L 1141.5 1867 L 1147.5 1867 L 1148.5 1866 L 1177.5 1862 L 1243.5 1847 L 1304.5 1828 Q 1353.9 1810.4 1395.5 1785 Q 1432.2 1762.7 1460 1731.5 Q 1491.5 1698 1505 1646.5 L 1508 1629.5 L 1508 1622.5 L 1509 1621.5 L 1509.5 1502 L 1510 1580.5 L 1511.5 1582 Q 1543.4 1595.1 1570.5 1613 Q 1594.8 1628.8 1614 1649.5 Q 1627.7 1664.3 1636 1684.5 L 1640 1698.5 L 1641 1719.5 L 1635 1742.5 L 1629 1754.5 Q 1616 1775.5 1597.5 1791 Q 1578.5 1807 1556.5 1820 L 1504.5 1846 L 1471.5 1859 L 1432.5 1872 L 1355.5 1892 L 1274.5 1907 L 1268.5 1907 L 1246.5 1911 L 1239.5 1911 L 1238.5 1912 L 1231.5 1912 L 1230.5 1913 L 1223.5 1913 L 1222.5 1914 L 1205.5 1915 L 1204.5 1916 L 1174.5 1918 L 1173.5 1919 L 1133.5 1921 L 1132.5 1922 L 1116.5 1922 L 1115.5 1923 L 1094.5 1923 L 1093.5 1924 L 988.5 1925 L 987.5 1924 L 954.5 1924 L 953.5 1923 L 932.5 1923 L 931.5 1922 L 886.5 1920 L 885.5 1919 L 863.5 1918 L 862.5 1917 L 853.5 1917 L 852.5 1916 L 843.5 1916 L 842.5 1915 L 834.5 1915 L 833.5 1914 L 801.5 1911 L 800.5 1910 L 773.5 1907 L 706.5 1895 L 632.5 1877 L 596.5 1866 L 560.5 1853 L 509.5 1830 Q 464.5 1807.5 432 1772.5 Q 420.4 1759.6 413 1742.5 L 407 1719.5 L 407 1705.5 L 410 1690.5 L 417 1673.5 Q 429.3 1651.8 447.5 1636 Q 473 1613.5 504.5 1597 Q 549.6 1572.9 602 1557 L 602.5 1484 Z " /></svg>