<svg width="512" height="512" version="1.1" xmlns="http://www.w3.org/2000/svg" desc="Created with imagetracer.js version 1.2.6" ><path fill="rgb(255,251,247)" stroke="rgb(255,251,247)" stroke-width="1" opacity="0.996078431372549" d="M 147.5 283 L 162.5 284 L 169.5 286 L 174 289.5 L 175 294.5 L 171.5 299 L 169.5 300 L 158.5 295 L 145.5 295 Q 139 296.5 136 301.5 L 135 308.5 L 138 315 L 144.5 319 L 165.5 328 L 174 336.5 Q 178.9 344.1 177 358.5 Q 174.9 367.9 168.5 373 Q 159.6 380.6 141.5 379 Q 132 377.5 125.5 373 L 121 368.5 L 120 360.5 Q 121 356 127.5 357 Q 132.1 362.9 139.5 366 L 151.5 367 Q 158.9 365.9 162 360.5 Q 165.2 357.2 164 349.5 L 158.5 341 L 133.5 329 L 126 322.5 Q 120.3 316.2 122 302.5 Q 123.8 293.3 130.5 289 L 135.5 286 L 147.5 283 Z " /><path fill="rgb(255,251,247)" stroke="rgb(255,251,247)" stroke-width="1" opacity="0.996078431372549" d="M 210.5 284 L 226.5 284 Q 237.6 286.4 243 294.5 L 247 304.5 L 247 357.5 Q 245.3 367.8 238.5 373 L 227.5 378 L 223 378 L 223 388.5 L 222 391 L 216.5 392 L 214 389.5 L 214 378 Q 199.9 378.1 194 368.5 L 190 358.5 L 190 303.5 Q 191.9 294.9 197.5 290 L 210.5 284 Z M 213 296 L 209 298 Q 204 301 203 307 L 203 356 L 205 361 L 213 366 L 214 366 L 214 357 Q 215 353 221 354 L 223 357 L 223 366 L 230 363 L 234 354 L 234 309 L 230 299 L 225 296 L 213 296 Z " /><path fill="rgb(255,251,247)" stroke="rgb(255,251,247)" stroke-width="1" opacity="0.996078431372549" d="M 266.5 284 Q 274.5 282.5 277 286.5 L 277 366 L 311.5 366 L 314 367 L 315 373.5 L 314 377 L 311.5 378 L 267.5 378 L 264 375.5 L 264 286.5 L 266.5 284 Z " /><path fill="rgb(255,151,11)" stroke="rgb(255,151,11)" stroke-width="1" opacity="0.5843137254901961" d="M 340.5 21 Q 342.8 20.3 342 22.5 L 481 169.5 L 469 158.5 L 340.5 21 Z " /><path fill="rgb(255,151,11)" stroke="rgb(255,151,11)" stroke-width="1" opacity="0.5843137254901961" d="M 37.5 241 L 104 241.5 L 37.5 242 L 37.5 241 Z " /><path fill="rgb(255,151,11)" stroke="rgb(255,151,11)" stroke-width="1" opacity="0.5843137254901961" d="M 35.5 242 L 32 246.5 L 31.5 250 L 31 246.5 L 33 243 L 35.5 242 Z " /><path fill="rgb(255,151,11)" stroke="rgb(255,151,11)" stroke-width="1" opacity="0.5843137254901961" d="M 31.5 412 L 34.5 419 L 38 420.5 L 36.5 421 L 32 417.5 L 31.5 412 Z " /><path fill="rgb(255,151,11)" stroke="rgb(255,151,11)" stroke-width="1" opacity="0.5843137254901961" d="M 39.5 421 L 103 421.5 L 39.5 422 L 39.5 421 Z " /><path fill="rgb(0,0,0)" stroke="rgb(0,0,0)" stroke-width="1" opacity="0" d="M 0 0 L 512 0 L 512 512 L 0 512 L 0 0 Z M 143 21 Q 127 24 118 33 Q 106 43 103 61 L 103 241 L 38 241 L 33 243 L 31 247 L 31 416 L 32 418 L 40 422 L 103 422 L 103 452 L 104 457 Q 107 469 115 477 Q 125 488 143 491 L 442 491 Q 456 489 465 481 Q 477 471 481 453 L 481 170 L 342 23 L 342 21 L 143 21 Z " /><path fill="rgb(255,183,99)" stroke="rgb(255,183,99)" stroke-width="1" opacity="0.9921568627450981" d="M 142.5 21 L 340 21.5 L 142.5 22 Q 123.9 25.9 114 38.5 Q 106.5 47.5 104 61.5 L 103.5 241 L 103 60.5 L 106 49.5 L 116 34 L 131.5 24 L 142.5 21 Z " /><path fill="rgb(255,183,99)" stroke="rgb(255,183,99)" stroke-width="1" opacity="0.9921568627450981" d="M 340.5 140 L 341 144.5 L 340 144.5 L 340.5 140 Z " /><path fill="rgb(255,183,99)" stroke="rgb(255,183,99)" stroke-width="1" opacity="0.9921568627450981" d="M 344.5 155 L 345.5 157 L 344.5 155 Z " /><path fill="rgb(255,183,99)" stroke="rgb(255,183,99)" stroke-width="1" opacity="0.9921568627450981" d="M 346.5 158 L 352.5 165 L 346.5 158 Z " /><path fill="rgb(255,183,99)" stroke="rgb(255,183,99)" stroke-width="1" opacity="0.9921568627450981" d="M 354.5 165 L 355.5 167 L 354.5 165 Z " /><path fill="rgb(255,183,99)" stroke="rgb(255,183,99)" stroke-width="1" opacity="0.9921568627450981" d="M 366.5 170 L 481 170 L 481 451.5 Q 477.5 470 465.5 480 Q 456.4 488.4 441.5 491 L 142.5 491 L 131.5 488 L 116 478 L 106 462.5 L 103 451.5 L 103 421 L 398 421.5 L 104 422 L 104 450.5 L 105 455.5 Q 109.2 470.3 119.5 479 Q 128.4 487.1 142.5 490 L 441.5 490 Q 460.1 486.1 470 473.5 Q 477.6 465.1 480 451.5 L 480 171 L 366.5 171 L 366.5 170 Z " /><path fill="rgb(255,183,99)" stroke="rgb(255,183,99)" stroke-width="1" opacity="0.9921568627450981" d="M 401.5 242 L 405 244.5 L 402.5 243 L 401.5 242 Z " /><path fill="rgb(255,183,99)" stroke="rgb(255,183,99)" stroke-width="1" opacity="0.9921568627450981" d="M 406.5 249 L 407 412.5 L 406 412.5 L 406.5 249 Z " /><path fill="rgb(255,183,99)" stroke="rgb(255,183,99)" stroke-width="1" opacity="0.9921568627450981" d="M 275.5 284 L 276.5 286 L 275.5 284 Z " /><path fill="rgb(255,183,99)" stroke="rgb(255,183,99)" stroke-width="1" opacity="0.9921568627450981" d="M 277.5 288 L 278 365.5 L 277 365.5 L 277.5 288 Z " /><path fill="rgb(255,183,99)" stroke="rgb(255,183,99)" stroke-width="1" opacity="0.9921568627450981" d="M 129.5 289 L 126.5 293 L 129.5 289 Z " /><path fill="rgb(255,183,99)" stroke="rgb(255,183,99)" stroke-width="1" opacity="0.9921568627450981" d="M 207.5 299 L 206.5 301 L 207.5 299 Z " /><path fill="rgb(255,183,99)" stroke="rgb(255,183,99)" stroke-width="1" opacity="0.9921568627450981" d="M 121.5 305 L 122 310.5 L 121 310.5 L 121.5 305 Z " /><path fill="rgb(255,183,99)" stroke="rgb(255,183,99)" stroke-width="1" opacity="0.9921568627450981" d="M 247.5 307 L 248 309.5 L 247 309.5 L 247.5 307 Z " /><path fill="rgb(255,183,99)" stroke="rgb(255,183,99)" stroke-width="1" opacity="0.9921568627450981" d="M 233.5 311 L 234 350.5 L 233 350.5 L 233.5 311 Z " /><path fill="rgb(255,183,99)" stroke="rgb(255,183,99)" stroke-width="1" opacity="0.9921568627450981" d="M 126.5 323 L 128.5 326 L 126.5 323 Z " /><path fill="rgb(255,183,99)" stroke="rgb(255,183,99)" stroke-width="1" opacity="0.9921568627450981" d="M 247.5 352 L 248 354.5 L 247 354.5 L 247.5 352 Z " /><path fill="rgb(255,183,99)" stroke="rgb(255,183,99)" stroke-width="1" opacity="0.9921568627450981" d="M 177.5 353 L 178 355.5 L 177 355.5 L 177.5 353 Z " /><path fill="rgb(255,183,99)" stroke="rgb(255,183,99)" stroke-width="1" opacity="0.9921568627450981" d="M 221.5 354 L 222.5 356 L 221.5 354 Z " /><path fill="rgb(255,183,99)" stroke="rgb(255,183,99)" stroke-width="1" opacity="0.9921568627450981" d="M 146.5 366 L 149 366.5 L 146.5 367 L 146.5 366 Z " /><path fill="rgb(255,183,99)" stroke="rgb(255,183,99)" stroke-width="1" opacity="0.9921568627450981" d="M 195.5 370 L 197.5 373 L 195.5 370 Z " /><path fill="rgb(255,183,99)" stroke="rgb(255,183,99)" stroke-width="1" opacity="0.9921568627450981" d="M 405.5 415 L 406 416.5 L 400.5 421 L 400.5 420 L 405 416.5 L 405.5 415 Z " /><path fill="rgb(255,184,100)" stroke="rgb(255,184,100)" stroke-width="1" opacity="1" d="M 142.5 22 L 340 22 L 340 144.5 Q 342.9 158.1 352.5 165 L 366.5 171 L 480 171 L 480 451.5 Q 476.1 470.1 463.5 480 L 449.5 488 L 441.5 490 L 142.5 490 Q 124.1 485.9 114 473.5 Q 106.5 464.5 104 450.5 L 104 422 L 397.5 422 L 401.5 421 L 406 416.5 L 407 412.5 L 407 249.5 L 402.5 242 L 399.5 241 L 104 241 L 104 61.5 Q 107.8 42.3 120.5 32 Q 129.3 24.8 142.5 22 Z " /><path fill="rgb(255,184,100)" stroke="rgb(255,184,100)" stroke-width="1" opacity="1" d="M 156.5 283 L 159 283.5 L 156.5 284 L 156.5 283 Z " /><path fill="rgb(255,184,100)" stroke="rgb(255,184,100)" stroke-width="1" opacity="1" d="M 215.5 283 L 222 283.5 L 215.5 284 L 215.5 283 Z " /><path fill="rgb(255,184,100)" stroke="rgb(255,184,100)" stroke-width="1" opacity="1" d="M 269.5 283 L 272 283.5 L 269.5 284 L 269.5 283 Z " /><path fill="rgb(255,184,100)" stroke="rgb(255,184,100)" stroke-width="1" opacity="1" d="M 265.5 284 L 264.5 286 L 265.5 284 Z " /><path fill="rgb(255,184,100)" stroke="rgb(255,184,100)" stroke-width="1" opacity="1" d="M 263.5 287 L 264 374.5 L 263 374.5 L 263.5 287 Z " /><path fill="rgb(255,184,100)" stroke="rgb(255,184,100)" stroke-width="1" opacity="1" d="M 239.5 290 L 241.5 293 L 239.5 290 Z " /><path fill="rgb(255,184,100)" stroke="rgb(255,184,100)" stroke-width="1" opacity="1" d="M 173.5 297 L 172.5 299 L 173.5 297 Z " /><path fill="rgb(255,184,100)" stroke="rgb(255,184,100)" stroke-width="1" opacity="1" d="M 135.5 304 L 136 308.5 L 135 308.5 L 135.5 304 Z " /><path fill="rgb(255,184,100)" stroke="rgb(255,184,100)" stroke-width="1" opacity="1" d="M 189.5 307 L 190 354.5 L 189 354.5 L 189.5 307 Z " /><path fill="rgb(255,184,100)" stroke="rgb(255,184,100)" stroke-width="1" opacity="1" d="M 233.5 308 L 234 310.5 L 233 310.5 L 233.5 308 Z " /><path fill="rgb(255,184,100)" stroke="rgb(255,184,100)" stroke-width="1" opacity="1" d="M 247.5 310 L 248 351.5 L 247 351.5 L 247.5 310 Z " /><path fill="rgb(255,184,100)" stroke="rgb(255,184,100)" stroke-width="1" opacity="1" d="M 168.5 330 L 172.5 335 L 168.5 330 Z " /><path fill="rgb(255,184,100)" stroke="rgb(255,184,100)" stroke-width="1" opacity="1" d="M 158.5 341 L 160.5 344 L 158.5 341 Z " /><path fill="rgb(255,184,100)" stroke="rgb(255,184,100)" stroke-width="1" opacity="1" d="M 163.5 349 L 164 351.5 L 163 351.5 L 163.5 349 Z " /><path fill="rgb(255,184,100)" stroke="rgb(255,184,100)" stroke-width="1" opacity="1" d="M 177.5 349 L 178 352.5 L 177 352.5 L 177.5 349 Z " /><path fill="rgb(255,184,100)" stroke="rgb(255,184,100)" stroke-width="1" opacity="1" d="M 233.5 351 L 234 353.5 L 233 353.5 L 233.5 351 Z " /><path fill="rgb(255,184,100)" stroke="rgb(255,184,100)" stroke-width="1" opacity="1" d="M 163.5 354 L 164 356.5 L 163 356.5 L 163.5 354 Z " /><path fill="rgb(255,184,100)" stroke="rgb(255,184,100)" stroke-width="1" opacity="1" d="M 215.5 354 L 214.5 356 L 215.5 354 Z " /><path fill="rgb(255,184,100)" stroke="rgb(255,184,100)" stroke-width="1" opacity="1" d="M 129.5 358 L 132.5 362 L 129.5 358 Z " /><path fill="rgb(255,184,100)" stroke="rgb(255,184,100)" stroke-width="1" opacity="1" d="M 205.5 360 L 206.5 362 L 205.5 360 Z " /><path fill="rgb(255,184,100)" stroke="rgb(255,184,100)" stroke-width="1" opacity="1" d="M 119.5 362 L 120 365.5 L 119 365.5 L 119.5 362 Z " /><path fill="rgb(255,184,100)" stroke="rgb(255,184,100)" stroke-width="1" opacity="1" d="M 143.5 366 L 146 366.5 L 143.5 367 L 143.5 366 Z " /><path fill="rgb(255,184,100)" stroke="rgb(255,184,100)" stroke-width="1" opacity="1" d="M 149.5 366 L 152 366.5 L 149.5 367 L 149.5 366 Z " /><path fill="rgb(255,145,0)" stroke="rgb(255,145,0)" stroke-width="1" opacity="1" d="M 340.5 22 L 480 169.5 L 364.5 170 Q 352.3 166.7 346 157.5 L 342 150.5 L 340 139.5 L 340.5 22 Z " /><path fill="rgb(255,145,0)" stroke="rgb(255,145,0)" stroke-width="1" opacity="1" d="M 104.5 241 L 397.5 241 L 405 245.5 L 406 247.5 L 406 414.5 L 401.5 420 L 399.5 421 L 38.5 421 L 33 417.5 L 31 411.5 L 31 250.5 L 32 246.5 L 36.5 242 L 103.5 242 L 104.5 241 Z M 145 283 L 137 285 L 130 289 L 124 296 L 121 306 Q 121 317 126 324 L 133 329 L 157 340 Q 162 342 163 349 Q 165 358 161 362 L 154 366 L 141 366 Q 132 363 127 356 L 123 357 L 119 363 L 119 366 L 122 371 Q 129 377 140 379 L 157 379 L 167 375 L 174 368 L 178 356 Q 179 342 173 335 L 165 327 L 141 316 L 136 311 Q 135 304 137 301 L 140 298 L 148 295 L 156 295 L 168 300 L 172 300 L 175 296 Q 176 290 174 288 L 160 283 L 145 283 Z M 214 283 L 200 288 L 192 297 L 189 307 L 189 356 L 191 364 L 195 371 Q 201 377 212 379 L 214 380 L 214 391 L 221 392 L 223 390 L 223 379 L 237 375 L 245 366 L 248 355 L 248 308 L 246 300 L 242 293 Q 237 287 229 284 L 214 283 Z M 269 283 L 263 287 L 263 375 L 264 377 L 267 378 L 313 378 Q 316 376 315 369 L 313 366 L 278 366 L 278 289 L 277 286 Q 275 282 269 283 Z " /><path fill="rgb(255,145,0)" stroke="rgb(255,145,0)" stroke-width="1" opacity="1" d="M 214.5 296 Q 227.1 294.4 231 301.5 L 233 305.5 L 233 356.5 L 227.5 364 L 223 365 L 223 355.5 L 221.5 354 L 217.5 353 L 214 355.5 L 214 364.5 L 211.5 365 L 205 359.5 L 203 353.5 L 203 308.5 Q 204.1 301.1 209.5 298 L 214.5 296 Z " /></svg>